<svg width="1371" height="65" viewBox="0 0 1371 65" fill="none" xmlns="http://www.w3.org/2000/svg">
<g filter="url(#filter0_b_79:5)">
<path d="M17.2119 3.98633H10.3564V23H7.55859V3.98633H0.717773V1.67188H17.2119V3.98633ZM22.6611 9.06934C23.8623 7.59473 25.4248 6.85742 27.3486 6.85742C30.6982 6.85742 32.3877 8.74707 32.417 12.5264V23H29.707V12.5117C29.6973 11.3691 29.4336 10.5244 28.916 9.97754C28.4082 9.43066 27.6123 9.15723 26.5283 9.15723C25.6494 9.15723 24.8779 9.3916 24.2139 9.86035C23.5498 10.3291 23.0322 10.9443 22.6611 11.7061V23H19.9512V0.5H22.6611V9.06934ZM43.0518 23.293C40.9033 23.293 39.1553 22.5898 37.8076 21.1836C36.46 19.7676 35.7861 17.8779 35.7861 15.5146V15.0166C35.7861 13.4443 36.084 12.043 36.6797 10.8125C37.2852 9.57227 38.125 8.60547 39.1992 7.91211C40.2832 7.20898 41.4551 6.85742 42.7148 6.85742C44.7754 6.85742 46.377 7.53613 47.5195 8.89355C48.6621 10.251 49.2334 12.1943 49.2334 14.7236V15.8516H38.4961C38.5352 17.4141 38.9893 18.6787 39.8584 19.6455C40.7373 20.6025 41.8506 21.0811 43.1982 21.0811C44.1553 21.0811 44.9658 20.8857 45.6299 20.4951C46.2939 20.1045 46.875 19.5869 47.373 18.9424L49.0283 20.2314C47.7002 22.2725 45.708 23.293 43.0518 23.293ZM42.7148 9.08398C41.6211 9.08398 40.7031 9.48438 39.9609 10.2852C39.2188 11.0762 38.7598 12.1895 38.584 13.625H46.5234V13.4199C46.4453 12.043 46.0742 10.9785 45.4102 10.2266C44.7461 9.46484 43.8477 9.08398 42.7148 9.08398ZM59.165 14.9434C59.165 12.5117 59.7412 10.5586 60.8936 9.08398C62.0459 7.59961 63.5547 6.85742 65.4199 6.85742C67.2754 6.85742 68.7451 7.49219 69.8291 8.76172V0.5H72.5391V23H70.0488L69.917 21.3008C68.833 22.6289 67.3242 23.293 65.3906 23.293C63.5547 23.293 62.0557 22.541 60.8936 21.0371C59.7412 19.5332 59.165 17.5703 59.165 15.1484V14.9434ZM61.875 15.251C61.875 17.0479 62.2461 18.4541 62.9883 19.4697C63.7305 20.4854 64.7559 20.9932 66.0645 20.9932C67.7832 20.9932 69.0381 20.2217 69.8291 18.6787V11.3984C69.0186 9.9043 67.7734 9.15723 66.0938 9.15723C64.7656 9.15723 63.7305 9.66992 62.9883 10.6953C62.2461 11.7207 61.875 13.2393 61.875 15.251ZM84.4189 9.58203C84.0088 9.51367 83.5645 9.47949 83.0859 9.47949C81.3086 9.47949 80.1025 10.2363 79.4678 11.75V23H76.7578V7.15039H79.3945L79.4385 8.98145C80.3271 7.56543 81.5869 6.85742 83.2178 6.85742C83.7451 6.85742 84.1455 6.92578 84.4189 7.0625V9.58203ZM93.208 23.293C91.0596 23.293 89.3115 22.5898 87.9639 21.1836C86.6162 19.7676 85.9424 17.8779 85.9424 15.5146V15.0166C85.9424 13.4443 86.2402 12.043 86.8359 10.8125C87.4414 9.57227 88.2812 8.60547 89.3555 7.91211C90.4395 7.20898 91.6113 6.85742 92.8711 6.85742C94.9316 6.85742 96.5332 7.53613 97.6758 8.89355C98.8184 10.251 99.3896 12.1943 99.3896 14.7236V15.8516H88.6523C88.6914 17.4141 89.1455 18.6787 90.0146 19.6455C90.8936 20.6025 92.0068 21.0811 93.3545 21.0811C94.3115 21.0811 95.1221 20.8857 95.7861 20.4951C96.4502 20.1045 97.0312 19.5869 97.5293 18.9424L99.1846 20.2314C97.8564 22.2725 95.8643 23.293 93.208 23.293ZM92.8711 9.08398C91.7773 9.08398 90.8594 9.48438 90.1172 10.2852C89.375 11.0762 88.916 12.1895 88.7402 13.625H96.6797V13.4199C96.6016 12.043 96.2305 10.9785 95.5664 10.2266C94.9023 9.46484 94.0039 9.08398 92.8711 9.08398ZM112.324 23C112.168 22.6875 112.041 22.1309 111.943 21.3301C110.684 22.6387 109.18 23.293 107.432 23.293C105.869 23.293 104.585 22.8535 103.579 21.9746C102.583 21.0859 102.085 19.9629 102.085 18.6055C102.085 16.9551 102.71 15.6758 103.96 14.7676C105.22 13.8496 106.987 13.3906 109.263 13.3906H111.899V12.1455C111.899 11.1982 111.616 10.4463 111.05 9.88965C110.483 9.32324 109.648 9.04004 108.545 9.04004C107.578 9.04004 106.768 9.28418 106.113 9.77246C105.459 10.2607 105.132 10.8516 105.132 11.5449H102.407C102.407 10.7539 102.686 9.99219 103.242 9.25977C103.809 8.51758 104.57 7.93164 105.527 7.50195C106.494 7.07227 107.554 6.85742 108.706 6.85742C110.532 6.85742 111.963 7.31641 112.998 8.23438C114.033 9.14258 114.57 10.3975 114.609 11.999V19.2939C114.609 20.749 114.795 21.9062 115.166 22.7656V23H112.324ZM107.827 20.9346C108.677 20.9346 109.482 20.7148 110.244 20.2754C111.006 19.8359 111.558 19.2646 111.899 18.5615V15.3096H109.775C106.455 15.3096 104.795 16.2812 104.795 18.2246C104.795 19.0742 105.078 19.7383 105.645 20.2168C106.211 20.6953 106.938 20.9346 107.827 20.9346ZM121.406 7.15039L121.479 8.9082C122.642 7.54102 124.209 6.85742 126.182 6.85742C128.398 6.85742 129.907 7.70703 130.708 9.40625C131.235 8.64453 131.919 8.0293 132.759 7.56055C133.608 7.0918 134.609 6.85742 135.762 6.85742C139.238 6.85742 141.006 8.69824 141.064 12.3799V23H138.354V12.541C138.354 11.4082 138.096 10.5635 137.578 10.0068C137.061 9.44043 136.191 9.15723 134.971 9.15723C133.965 9.15723 133.13 9.45996 132.466 10.0654C131.802 10.6611 131.416 11.4668 131.309 12.4824V23H128.584V12.6143C128.584 10.3096 127.456 9.15723 125.2 9.15723C123.423 9.15723 122.207 9.91406 121.553 11.4277V23H118.843V7.15039H121.406ZM166.025 15.251C166.025 17.6729 165.469 19.6211 164.355 21.0957C163.242 22.5605 161.748 23.293 159.873 23.293C157.871 23.293 156.323 22.585 155.229 21.1689L155.098 23H152.607V0.5H155.317V8.89355C156.411 7.53613 157.92 6.85742 159.844 6.85742C161.768 6.85742 163.276 7.58496 164.37 9.04004C165.474 10.4951 166.025 12.4873 166.025 15.0166V15.251ZM163.315 14.9434C163.315 13.0977 162.959 11.6719 162.246 10.666C161.533 9.66016 160.508 9.15723 159.17 9.15723C157.383 9.15723 156.099 9.9873 155.317 11.6475V18.5029C156.147 20.1631 157.441 20.9932 159.199 20.9932C160.498 20.9932 161.509 20.4902 162.231 19.4844C162.954 18.4785 163.315 16.9648 163.315 14.9434ZM176.03 23.293C173.882 23.293 172.134 22.5898 170.786 21.1836C169.438 19.7676 168.765 17.8779 168.765 15.5146V15.0166C168.765 13.4443 169.062 12.043 169.658 10.8125C170.264 9.57227 171.104 8.60547 172.178 7.91211C173.262 7.20898 174.434 6.85742 175.693 6.85742C177.754 6.85742 179.355 7.53613 180.498 8.89355C181.641 10.251 182.212 12.1943 182.212 14.7236V15.8516H171.475C171.514 17.4141 171.968 18.6787 172.837 19.6455C173.716 20.6025 174.829 21.0811 176.177 21.0811C177.134 21.0811 177.944 20.8857 178.608 20.4951C179.272 20.1045 179.854 19.5869 180.352 18.9424L182.007 20.2314C180.679 22.2725 178.687 23.293 176.03 23.293ZM175.693 9.08398C174.6 9.08398 173.682 9.48438 172.939 10.2852C172.197 11.0762 171.738 12.1895 171.562 13.625H179.502V13.4199C179.424 12.043 179.053 10.9785 178.389 10.2266C177.725 9.46484 176.826 9.08398 175.693 9.08398ZM198.56 9.30371H196.348C196.914 10.124 197.202 11.0469 197.212 12.0723V12.4385C197.212 13.3955 196.938 14.2793 196.392 15.0898C195.854 15.9004 195.107 16.5352 194.15 16.9941C193.203 17.4531 192.144 17.6826 190.972 17.6826C190.2 17.6826 189.458 17.5801 188.745 17.375C188.237 17.7852 187.983 18.3027 187.983 18.9277C187.983 19.709 188.579 20.1094 189.771 20.1289H192.451C194.404 20.1387 195.884 20.5098 196.89 21.2422C197.896 21.9648 198.398 23.0244 198.398 24.4209C198.398 25.2412 198.052 26.042 197.358 26.8232C196.675 27.6143 195.737 28.2441 194.546 28.7129C193.354 29.1816 192.021 29.416 190.547 29.416C188.506 29.416 186.86 29.0352 185.61 28.2734C184.37 27.5215 183.75 26.5498 183.75 25.3584C183.75 24.5479 183.979 23.8057 184.438 23.1318C184.897 22.458 185.537 21.916 186.357 21.5059C185.811 21.0469 185.537 20.4561 185.537 19.7334C185.537 18.5225 186.099 17.5166 187.222 16.7158C185.522 15.6807 184.673 14.2012 184.673 12.2773V12.1162C184.673 10.583 185.259 9.32324 186.431 8.33691C187.612 7.35059 189.116 6.85742 190.942 6.85742C191.724 6.85742 192.461 6.95508 193.154 7.15039H198.53L198.56 9.30371ZM188.159 22.2676C187.612 22.5215 187.192 22.873 186.899 23.3223C186.606 23.7812 186.46 24.2793 186.46 24.8164C186.46 25.5391 186.821 26.1152 187.544 26.5449C188.267 26.9844 189.268 27.2041 190.547 27.2041C191.973 27.2041 193.184 26.9258 194.18 26.3691C195.186 25.8125 195.688 25.1631 195.688 24.4209C195.688 23.6982 195.435 23.1807 194.927 22.8682C194.419 22.5459 193.638 22.375 192.583 22.3555H189.082L188.159 22.2676ZM187.383 12.4385C187.383 13.249 187.725 13.957 188.408 14.5625C189.092 15.1582 189.946 15.4561 190.972 15.4561C191.978 15.4561 192.817 15.1582 193.491 14.5625C194.165 13.9668 194.502 13.2393 194.502 12.3799V12.1162C194.502 11.2666 194.165 10.5488 193.491 9.96289C192.817 9.37695 191.968 9.08398 190.942 9.08398C189.917 9.08398 189.067 9.37695 188.394 9.96289C187.72 10.5488 187.383 11.2812 187.383 12.1602V12.4385ZM204.155 23H201.445V7.15039H204.155V23ZM201.226 2.94629C201.226 2.50684 201.357 2.13574 201.621 1.83301C201.895 1.53027 202.295 1.37891 202.822 1.37891C203.35 1.37891 203.75 1.53027 204.023 1.83301C204.297 2.13574 204.434 2.50684 204.434 2.94629C204.434 3.38574 204.297 3.75195 204.023 4.04492C203.75 4.33789 203.35 4.48438 202.822 4.48438C202.295 4.48438 201.895 4.33789 201.621 4.04492C201.357 3.75195 201.226 3.38574 201.226 2.94629ZM211.069 7.15039L211.157 9.14258C212.368 7.61914 213.95 6.85742 215.903 6.85742C219.253 6.85742 220.942 8.74707 220.972 12.5264V23H218.262V12.5117C218.252 11.3691 217.988 10.5244 217.471 9.97754C216.963 9.43066 216.167 9.15723 215.083 9.15723C214.204 9.15723 213.433 9.3916 212.769 9.86035C212.104 10.3291 211.587 10.9443 211.216 11.7061V23H208.506V7.15039H211.069ZM234.287 18.7959C234.287 18.0635 234.009 17.4971 233.452 17.0967C232.905 16.6865 231.943 16.335 230.566 16.042C229.199 15.749 228.11 15.3975 227.3 14.9873C226.499 14.5771 225.903 14.0889 225.513 13.5225C225.132 12.9561 224.941 12.2822 224.941 11.501C224.941 10.2021 225.488 9.10352 226.582 8.20508C227.686 7.30664 229.092 6.85742 230.801 6.85742C232.598 6.85742 234.053 7.32129 235.166 8.24902C236.289 9.17676 236.851 10.3633 236.851 11.8086H234.126C234.126 11.0664 233.809 10.4268 233.174 9.88965C232.549 9.35254 231.758 9.08398 230.801 9.08398C229.814 9.08398 229.043 9.29883 228.486 9.72852C227.93 10.1582 227.651 10.7197 227.651 11.4131C227.651 12.0674 227.91 12.5605 228.428 12.8926C228.945 13.2246 229.878 13.542 231.226 13.8447C232.583 14.1475 233.682 14.5088 234.521 14.9287C235.361 15.3486 235.981 15.8564 236.382 16.4521C236.792 17.0381 236.997 17.7559 236.997 18.6055C236.997 20.0215 236.431 21.1592 235.298 22.0186C234.165 22.8682 232.695 23.293 230.889 23.293C229.619 23.293 228.496 23.0684 227.52 22.6191C226.543 22.1699 225.776 21.5449 225.22 20.7441C224.673 19.9336 224.399 19.0596 224.399 18.1221H227.109C227.158 19.0303 227.52 19.7529 228.193 20.29C228.877 20.8174 229.775 21.0811 230.889 21.0811C231.914 21.0811 232.734 20.876 233.35 20.4658C233.975 20.0459 234.287 19.4893 234.287 18.7959ZM240.439 27.248L238.901 26.1934C239.819 24.9141 240.298 23.5957 240.337 22.2383V19.792H242.988V21.916C242.988 22.9023 242.744 23.8887 242.256 24.875C241.777 25.8613 241.172 26.6523 240.439 27.248ZM256.406 7.15039L256.479 8.9082C257.642 7.54102 259.209 6.85742 261.182 6.85742C263.398 6.85742 264.907 7.70703 265.708 9.40625C266.235 8.64453 266.919 8.0293 267.759 7.56055C268.608 7.0918 269.609 6.85742 270.762 6.85742C274.238 6.85742 276.006 8.69824 276.064 12.3799V23H273.354V12.541C273.354 11.4082 273.096 10.5635 272.578 10.0068C272.061 9.44043 271.191 9.15723 269.971 9.15723C268.965 9.15723 268.13 9.45996 267.466 10.0654C266.802 10.6611 266.416 11.4668 266.309 12.4824V23H263.584V12.6143C263.584 10.3096 262.456 9.15723 260.2 9.15723C258.423 9.15723 257.207 9.91406 256.553 11.4277V23H253.843V7.15039H256.406ZM279.448 14.9287C279.448 13.376 279.751 11.9795 280.356 10.7393C280.972 9.49902 281.821 8.54199 282.905 7.86816C283.999 7.19434 285.244 6.85742 286.641 6.85742C288.799 6.85742 290.542 7.60449 291.87 9.09863C293.208 10.5928 293.877 12.5801 293.877 15.0605V15.251C293.877 16.7939 293.579 18.1807 292.983 19.4111C292.397 20.6318 291.553 21.584 290.449 22.2676C289.355 22.9512 288.096 23.293 286.67 23.293C284.521 23.293 282.778 22.5459 281.44 21.0518C280.112 19.5576 279.448 17.5801 279.448 15.1191V14.9287ZM282.173 15.251C282.173 17.0088 282.578 18.4199 283.389 19.4844C284.209 20.5488 285.303 21.0811 286.67 21.0811C288.047 21.0811 289.141 20.5439 289.951 19.4697C290.762 18.3857 291.167 16.8721 291.167 14.9287C291.167 13.1904 290.752 11.7842 289.922 10.71C289.102 9.62598 288.008 9.08398 286.641 9.08398C285.303 9.08398 284.224 9.61621 283.403 10.6807C282.583 11.7451 282.173 13.2686 282.173 15.251ZM306.504 18.7959C306.504 18.0635 306.226 17.4971 305.669 17.0967C305.122 16.6865 304.16 16.335 302.783 16.042C301.416 15.749 300.327 15.3975 299.517 14.9873C298.716 14.5771 298.12 14.0889 297.729 13.5225C297.349 12.9561 297.158 12.2822 297.158 11.501C297.158 10.2021 297.705 9.10352 298.799 8.20508C299.902 7.30664 301.309 6.85742 303.018 6.85742C304.814 6.85742 306.27 7.32129 307.383 8.24902C308.506 9.17676 309.067 10.3633 309.067 11.8086H306.343C306.343 11.0664 306.025 10.4268 305.391 9.88965C304.766 9.35254 303.975 9.08398 303.018 9.08398C302.031 9.08398 301.26 9.29883 300.703 9.72852C300.146 10.1582 299.868 10.7197 299.868 11.4131C299.868 12.0674 300.127 12.5605 300.645 12.8926C301.162 13.2246 302.095 13.542 303.442 13.8447C304.8 14.1475 305.898 14.5088 306.738 14.9287C307.578 15.3486 308.198 15.8564 308.599 16.4521C309.009 17.0381 309.214 17.7559 309.214 18.6055C309.214 20.0215 308.647 21.1592 307.515 22.0186C306.382 22.8682 304.912 23.293 303.105 23.293C301.836 23.293 300.713 23.0684 299.736 22.6191C298.76 22.1699 297.993 21.5449 297.437 20.7441C296.89 19.9336 296.616 19.0596 296.616 18.1221H299.326C299.375 19.0303 299.736 19.7529 300.41 20.29C301.094 20.8174 301.992 21.0811 303.105 21.0811C304.131 21.0811 304.951 20.876 305.566 20.4658C306.191 20.0459 306.504 19.4893 306.504 18.7959ZM316.421 3.3125V7.15039H319.38V9.24512H316.421V19.0742C316.421 19.709 316.553 20.1875 316.816 20.5098C317.08 20.8223 317.529 20.9785 318.164 20.9785C318.477 20.9785 318.906 20.9199 319.453 20.8027V23C318.74 23.1953 318.047 23.293 317.373 23.293C316.162 23.293 315.249 22.9268 314.634 22.1943C314.019 21.4619 313.711 20.4219 313.711 19.0742V9.24512H310.825V7.15039H313.711V3.3125H316.421ZM329.282 14.9287C329.282 13.376 329.585 11.9795 330.19 10.7393C330.806 9.49902 331.655 8.54199 332.739 7.86816C333.833 7.19434 335.078 6.85742 336.475 6.85742C338.633 6.85742 340.376 7.60449 341.704 9.09863C343.042 10.5928 343.711 12.5801 343.711 15.0605V15.251C343.711 16.7939 343.413 18.1807 342.817 19.4111C342.231 20.6318 341.387 21.584 340.283 22.2676C339.189 22.9512 337.93 23.293 336.504 23.293C334.355 23.293 332.612 22.5459 331.274 21.0518C329.946 19.5576 329.282 17.5801 329.282 15.1191V14.9287ZM332.007 15.251C332.007 17.0088 332.412 18.4199 333.223 19.4844C334.043 20.5488 335.137 21.0811 336.504 21.0811C337.881 21.0811 338.975 20.5439 339.785 19.4697C340.596 18.3857 341.001 16.8721 341.001 14.9287C341.001 13.1904 340.586 11.7842 339.756 10.71C338.936 9.62598 337.842 9.08398 336.475 9.08398C335.137 9.08398 334.058 9.61621 333.237 10.6807C332.417 11.7451 332.007 13.2686 332.007 15.251ZM348.442 23V9.24512H345.938V7.15039H348.442V5.52441C348.442 3.8252 348.896 2.51172 349.805 1.58398C350.713 0.65625 351.997 0.192383 353.657 0.192383C354.282 0.192383 354.902 0.275391 355.518 0.441406L355.371 2.63867C354.912 2.55078 354.424 2.50684 353.906 2.50684C353.027 2.50684 352.349 2.76563 351.87 3.2832C351.392 3.79102 351.152 4.52344 351.152 5.48047V7.15039H354.536V9.24512H351.152V23H348.442ZM368.657 3.3125V7.15039H371.616V9.24512H368.657V19.0742C368.657 19.709 368.789 20.1875 369.053 20.5098C369.316 20.8223 369.766 20.9785 370.4 20.9785C370.713 20.9785 371.143 20.9199 371.689 20.8027V23C370.977 23.1953 370.283 23.293 369.609 23.293C368.398 23.293 367.485 22.9268 366.87 22.1943C366.255 21.4619 365.947 20.4219 365.947 19.0742V9.24512H363.062V7.15039H365.947V3.3125H368.657ZM377.505 9.06934C378.706 7.59473 380.269 6.85742 382.192 6.85742C385.542 6.85742 387.231 8.74707 387.261 12.5264V23H384.551V12.5117C384.541 11.3691 384.277 10.5244 383.76 9.97754C383.252 9.43066 382.456 9.15723 381.372 9.15723C380.493 9.15723 379.722 9.3916 379.058 9.86035C378.394 10.3291 377.876 10.9443 377.505 11.7061V23H374.795V0.5H377.505V9.06934ZM397.896 23.293C395.747 23.293 393.999 22.5898 392.651 21.1836C391.304 19.7676 390.63 17.8779 390.63 15.5146V15.0166C390.63 13.4443 390.928 12.043 391.523 10.8125C392.129 9.57227 392.969 8.60547 394.043 7.91211C395.127 7.20898 396.299 6.85742 397.559 6.85742C399.619 6.85742 401.221 7.53613 402.363 8.89355C403.506 10.251 404.077 12.1943 404.077 14.7236V15.8516H393.34C393.379 17.4141 393.833 18.6787 394.702 19.6455C395.581 20.6025 396.694 21.0811 398.042 21.0811C398.999 21.0811 399.81 20.8857 400.474 20.4951C401.138 20.1045 401.719 19.5869 402.217 18.9424L403.872 20.2314C402.544 22.2725 400.552 23.293 397.896 23.293ZM397.559 9.08398C396.465 9.08398 395.547 9.48438 394.805 10.2852C394.062 11.0762 393.604 12.1895 393.428 13.625H401.367V13.4199C401.289 12.043 400.918 10.9785 400.254 10.2266C399.59 9.46484 398.691 9.08398 397.559 9.08398ZM418.345 3.3125V7.15039H421.304V9.24512H418.345V19.0742C418.345 19.709 418.477 20.1875 418.74 20.5098C419.004 20.8223 419.453 20.9785 420.088 20.9785C420.4 20.9785 420.83 20.9199 421.377 20.8027V23C420.664 23.1953 419.971 23.293 419.297 23.293C418.086 23.293 417.173 22.9268 416.558 22.1943C415.942 21.4619 415.635 20.4219 415.635 19.0742V9.24512H412.749V7.15039H415.635V3.3125H418.345ZM427.427 23H424.717V7.15039H427.427V23ZM424.497 2.94629C424.497 2.50684 424.629 2.13574 424.893 1.83301C425.166 1.53027 425.566 1.37891 426.094 1.37891C426.621 1.37891 427.021 1.53027 427.295 1.83301C427.568 2.13574 427.705 2.50684 427.705 2.94629C427.705 3.38574 427.568 3.75195 427.295 4.04492C427.021 4.33789 426.621 4.48438 426.094 4.48438C425.566 4.48438 425.166 4.33789 424.893 4.04492C424.629 3.75195 424.497 3.38574 424.497 2.94629ZM434.326 7.15039L434.399 8.9082C435.562 7.54102 437.129 6.85742 439.102 6.85742C441.318 6.85742 442.827 7.70703 443.628 9.40625C444.155 8.64453 444.839 8.0293 445.679 7.56055C446.528 7.0918 447.529 6.85742 448.682 6.85742C452.158 6.85742 453.926 8.69824 453.984 12.3799V23H451.274V12.541C451.274 11.4082 451.016 10.5635 450.498 10.0068C449.98 9.44043 449.111 9.15723 447.891 9.15723C446.885 9.15723 446.05 9.45996 445.386 10.0654C444.722 10.6611 444.336 11.4668 444.229 12.4824V23H441.504V12.6143C441.504 10.3096 440.376 9.15723 438.12 9.15723C436.343 9.15723 435.127 9.91406 434.473 11.4277V23H431.763V7.15039H434.326ZM464.663 23.293C462.515 23.293 460.767 22.5898 459.419 21.1836C458.071 19.7676 457.397 17.8779 457.397 15.5146V15.0166C457.397 13.4443 457.695 12.043 458.291 10.8125C458.896 9.57227 459.736 8.60547 460.811 7.91211C461.895 7.20898 463.066 6.85742 464.326 6.85742C466.387 6.85742 467.988 7.53613 469.131 8.89355C470.273 10.251 470.845 12.1943 470.845 14.7236V15.8516H460.107C460.146 17.4141 460.601 18.6787 461.47 19.6455C462.349 20.6025 463.462 21.0811 464.81 21.0811C465.767 21.0811 466.577 20.8857 467.241 20.4951C467.905 20.1045 468.486 19.5869 468.984 18.9424L470.64 20.2314C469.312 22.2725 467.319 23.293 464.663 23.293ZM464.326 9.08398C463.232 9.08398 462.314 9.48438 461.572 10.2852C460.83 11.0762 460.371 12.1895 460.195 13.625H468.135V13.4199C468.057 12.043 467.686 10.9785 467.021 10.2266C466.357 9.46484 465.459 9.08398 464.326 9.08398ZM473.906 27.248L472.368 26.1934C473.286 24.9141 473.765 23.5957 473.804 22.2383V19.792H476.455V21.916C476.455 22.9023 476.211 23.8887 475.723 24.875C475.244 25.8613 474.639 26.6523 473.906 27.248ZM501.357 19.2646L504.404 7.15039H507.114L502.5 23H500.303L496.45 10.9883L492.7 23H490.503L485.903 7.15039H488.599L491.719 19.0156L495.41 7.15039H497.593L501.357 19.2646ZM512.827 23H510.117V7.15039H512.827V23ZM509.897 2.94629C509.897 2.50684 510.029 2.13574 510.293 1.83301C510.566 1.53027 510.967 1.37891 511.494 1.37891C512.021 1.37891 512.422 1.53027 512.695 1.83301C512.969 2.13574 513.105 2.50684 513.105 2.94629C513.105 3.38574 512.969 3.75195 512.695 4.04492C512.422 4.33789 512.021 4.48438 511.494 4.48438C510.967 4.48438 510.566 4.33789 510.293 4.04492C510.029 3.75195 509.897 3.38574 509.897 2.94629ZM520.854 3.3125V7.15039H523.813V9.24512H520.854V19.0742C520.854 19.709 520.986 20.1875 521.25 20.5098C521.514 20.8223 521.963 20.9785 522.598 20.9785C522.91 20.9785 523.34 20.9199 523.887 20.8027V23C523.174 23.1953 522.48 23.293 521.807 23.293C520.596 23.293 519.683 22.9268 519.067 22.1943C518.452 21.4619 518.145 20.4219 518.145 19.0742V9.24512H515.259V7.15039H518.145V3.3125H520.854ZM529.702 9.06934C530.903 7.59473 532.466 6.85742 534.39 6.85742C537.739 6.85742 539.429 8.74707 539.458 12.5264V23H536.748V12.5117C536.738 11.3691 536.475 10.5244 535.957 9.97754C535.449 9.43066 534.653 9.15723 533.569 9.15723C532.69 9.15723 531.919 9.3916 531.255 9.86035C530.591 10.3291 530.073 10.9443 529.702 11.7061V23H526.992V0.5H529.702V9.06934ZM560.742 23C560.586 22.6875 560.459 22.1309 560.361 21.3301C559.102 22.6387 557.598 23.293 555.85 23.293C554.287 23.293 553.003 22.8535 551.997 21.9746C551.001 21.0859 550.503 19.9629 550.503 18.6055C550.503 16.9551 551.128 15.6758 552.378 14.7676C553.638 13.8496 555.405 13.3906 557.681 13.3906H560.317V12.1455C560.317 11.1982 560.034 10.4463 559.468 9.88965C558.901 9.32324 558.066 9.04004 556.963 9.04004C555.996 9.04004 555.186 9.28418 554.531 9.77246C553.877 10.2607 553.55 10.8516 553.55 11.5449H550.825C550.825 10.7539 551.104 9.99219 551.66 9.25977C552.227 8.51758 552.988 7.93164 553.945 7.50195C554.912 7.07227 555.972 6.85742 557.124 6.85742C558.95 6.85742 560.381 7.31641 561.416 8.23438C562.451 9.14258 562.988 10.3975 563.027 11.999V19.2939C563.027 20.749 563.213 21.9062 563.584 22.7656V23H560.742ZM556.245 20.9346C557.095 20.9346 557.9 20.7148 558.662 20.2754C559.424 19.8359 559.976 19.2646 560.317 18.5615V15.3096H558.193C554.873 15.3096 553.213 16.2812 553.213 18.2246C553.213 19.0742 553.496 19.7383 554.062 20.2168C554.629 20.6953 555.356 20.9346 556.245 20.9346ZM578.394 3.3125V7.15039H581.353V9.24512H578.394V19.0742C578.394 19.709 578.525 20.1875 578.789 20.5098C579.053 20.8223 579.502 20.9785 580.137 20.9785C580.449 20.9785 580.879 20.9199 581.426 20.8027V23C580.713 23.1953 580.02 23.293 579.346 23.293C578.135 23.293 577.222 22.9268 576.606 22.1943C575.991 21.4619 575.684 20.4219 575.684 19.0742V9.24512H572.798V7.15039H575.684V3.3125H578.394ZM591.108 23.293C588.96 23.293 587.212 22.5898 585.864 21.1836C584.517 19.7676 583.843 17.8779 583.843 15.5146V15.0166C583.843 13.4443 584.141 12.043 584.736 10.8125C585.342 9.57227 586.182 8.60547 587.256 7.91211C588.34 7.20898 589.512 6.85742 590.771 6.85742C592.832 6.85742 594.434 7.53613 595.576 8.89355C596.719 10.251 597.29 12.1943 597.29 14.7236V15.8516H586.553C586.592 17.4141 587.046 18.6787 587.915 19.6455C588.794 20.6025 589.907 21.0811 591.255 21.0811C592.212 21.0811 593.022 20.8857 593.687 20.4951C594.351 20.1045 594.932 19.5869 595.43 18.9424L597.085 20.2314C595.757 22.2725 593.765 23.293 591.108 23.293ZM590.771 9.08398C589.678 9.08398 588.76 9.48438 588.018 10.2852C587.275 11.0762 586.816 12.1895 586.641 13.625H594.58V13.4199C594.502 12.043 594.131 10.9785 593.467 10.2266C592.803 9.46484 591.904 9.08398 590.771 9.08398ZM610.225 23C610.068 22.6875 609.941 22.1309 609.844 21.3301C608.584 22.6387 607.08 23.293 605.332 23.293C603.77 23.293 602.485 22.8535 601.479 21.9746C600.483 21.0859 599.985 19.9629 599.985 18.6055C599.985 16.9551 600.61 15.6758 601.86 14.7676C603.12 13.8496 604.888 13.3906 607.163 13.3906H609.8V12.1455C609.8 11.1982 609.517 10.4463 608.95 9.88965C608.384 9.32324 607.549 9.04004 606.445 9.04004C605.479 9.04004 604.668 9.28418 604.014 9.77246C603.359 10.2607 603.032 10.8516 603.032 11.5449H600.308C600.308 10.7539 600.586 9.99219 601.143 9.25977C601.709 8.51758 602.471 7.93164 603.428 7.50195C604.395 7.07227 605.454 6.85742 606.606 6.85742C608.433 6.85742 609.863 7.31641 610.898 8.23438C611.934 9.14258 612.471 10.3975 612.51 11.999V19.2939C612.51 20.749 612.695 21.9062 613.066 22.7656V23H610.225ZM605.728 20.9346C606.577 20.9346 607.383 20.7148 608.145 20.2754C608.906 19.8359 609.458 19.2646 609.8 18.5615V15.3096H607.676C604.355 15.3096 602.695 16.2812 602.695 18.2246C602.695 19.0742 602.979 19.7383 603.545 20.2168C604.111 20.6953 604.839 20.9346 605.728 20.9346ZM623.115 21.0811C624.082 21.0811 624.927 20.7881 625.649 20.2021C626.372 19.6162 626.772 18.8838 626.851 18.0049H629.414C629.365 18.9131 629.053 19.7773 628.477 20.5977C627.9 21.418 627.129 22.0723 626.162 22.5605C625.205 23.0488 624.189 23.293 623.115 23.293C620.957 23.293 619.238 22.5752 617.959 21.1396C616.689 19.6943 616.055 17.7217 616.055 15.2217V14.7676C616.055 13.2246 616.338 11.8525 616.904 10.6514C617.471 9.4502 618.281 8.51758 619.336 7.85352C620.4 7.18945 621.655 6.85742 623.101 6.85742C624.878 6.85742 626.353 7.38965 627.524 8.4541C628.706 9.51855 629.336 10.9004 629.414 12.5996H626.851C626.772 11.5742 626.382 10.7344 625.679 10.0801C624.985 9.41602 624.126 9.08398 623.101 9.08398C621.724 9.08398 620.654 9.58203 619.893 10.5781C619.141 11.5645 618.765 12.9951 618.765 14.8701V15.3828C618.765 17.209 619.141 18.6152 619.893 19.6016C620.645 20.5879 621.719 21.0811 623.115 21.0811ZM635.171 9.06934C636.372 7.59473 637.935 6.85742 639.858 6.85742C643.208 6.85742 644.897 8.74707 644.927 12.5264V23H642.217V12.5117C642.207 11.3691 641.943 10.5244 641.426 9.97754C640.918 9.43066 640.122 9.15723 639.038 9.15723C638.159 9.15723 637.388 9.3916 636.724 9.86035C636.06 10.3291 635.542 10.9443 635.171 11.7061V23H632.461V0.5H635.171V9.06934ZM655.562 23.293C653.413 23.293 651.665 22.5898 650.317 21.1836C648.97 19.7676 648.296 17.8779 648.296 15.5146V15.0166C648.296 13.4443 648.594 12.043 649.189 10.8125C649.795 9.57227 650.635 8.60547 651.709 7.91211C652.793 7.20898 653.965 6.85742 655.225 6.85742C657.285 6.85742 658.887 7.53613 660.029 8.89355C661.172 10.251 661.743 12.1943 661.743 14.7236V15.8516H651.006C651.045 17.4141 651.499 18.6787 652.368 19.6455C653.247 20.6025 654.36 21.0811 655.708 21.0811C656.665 21.0811 657.476 20.8857 658.14 20.4951C658.804 20.1045 659.385 19.5869 659.883 18.9424L661.538 20.2314C660.21 22.2725 658.218 23.293 655.562 23.293ZM655.225 9.08398C654.131 9.08398 653.213 9.48438 652.471 10.2852C651.729 11.0762 651.27 12.1895 651.094 13.625H659.033V13.4199C658.955 12.043 658.584 10.9785 657.92 10.2266C657.256 9.46484 656.357 9.08398 655.225 9.08398ZM672.554 9.58203C672.144 9.51367 671.699 9.47949 671.221 9.47949C669.443 9.47949 668.237 10.2363 667.603 11.75V23H664.893V7.15039H667.529L667.573 8.98145C668.462 7.56543 669.722 6.85742 671.353 6.85742C671.88 6.85742 672.28 6.92578 672.554 7.0625V9.58203ZM696.533 19.2646L699.58 7.15039H702.29L697.676 23H695.479L691.626 10.9883L687.876 23H685.679L681.079 7.15039H683.774L686.895 19.0156L690.586 7.15039H692.769L696.533 19.2646ZM707.769 9.06934C708.97 7.59473 710.532 6.85742 712.456 6.85742C715.806 6.85742 717.495 8.74707 717.524 12.5264V23H714.814V12.5117C714.805 11.3691 714.541 10.5244 714.023 9.97754C713.516 9.43066 712.72 9.15723 711.636 9.15723C710.757 9.15723 709.985 9.3916 709.321 9.86035C708.657 10.3291 708.14 10.9443 707.769 11.7061V23H705.059V0.5H707.769V9.06934ZM720.864 14.9287C720.864 13.376 721.167 11.9795 721.772 10.7393C722.388 9.49902 723.237 8.54199 724.321 7.86816C725.415 7.19434 726.66 6.85742 728.057 6.85742C730.215 6.85742 731.958 7.60449 733.286 9.09863C734.624 10.5928 735.293 12.5801 735.293 15.0605V15.251C735.293 16.7939 734.995 18.1807 734.399 19.4111C733.813 20.6318 732.969 21.584 731.865 22.2676C730.771 22.9512 729.512 23.293 728.086 23.293C725.938 23.293 724.194 22.5459 722.856 21.0518C721.528 19.5576 720.864 17.5801 720.864 15.1191V14.9287ZM723.589 15.251C723.589 17.0088 723.994 18.4199 724.805 19.4844C725.625 20.5488 726.719 21.0811 728.086 21.0811C729.463 21.0811 730.557 20.5439 731.367 19.4697C732.178 18.3857 732.583 16.8721 732.583 14.9287C732.583 13.1904 732.168 11.7842 731.338 10.71C730.518 9.62598 729.424 9.08398 728.057 9.08398C726.719 9.08398 725.64 9.61621 724.819 10.6807C723.999 11.7451 723.589 13.2686 723.589 15.251ZM759.551 15.251C759.551 17.6729 758.994 19.6211 757.881 21.0957C756.768 22.5605 755.273 23.293 753.398 23.293C751.396 23.293 749.849 22.585 748.755 21.1689L748.623 23H746.133V0.5H748.843V8.89355C749.937 7.53613 751.445 6.85742 753.369 6.85742C755.293 6.85742 756.802 7.58496 757.896 9.04004C758.999 10.4951 759.551 12.4873 759.551 15.0166V15.251ZM756.841 14.9434C756.841 13.0977 756.484 11.6719 755.771 10.666C755.059 9.66016 754.033 9.15723 752.695 9.15723C750.908 9.15723 749.624 9.9873 748.843 11.6475V18.5029C749.673 20.1631 750.967 20.9932 752.725 20.9932C754.023 20.9932 755.034 20.4902 755.757 19.4844C756.479 18.4785 756.841 16.9648 756.841 14.9434ZM769.556 23.293C767.407 23.293 765.659 22.5898 764.312 21.1836C762.964 19.7676 762.29 17.8779 762.29 15.5146V15.0166C762.29 13.4443 762.588 12.043 763.184 10.8125C763.789 9.57227 764.629 8.60547 765.703 7.91211C766.787 7.20898 767.959 6.85742 769.219 6.85742C771.279 6.85742 772.881 7.53613 774.023 8.89355C775.166 10.251 775.737 12.1943 775.737 14.7236V15.8516H765C765.039 17.4141 765.493 18.6787 766.362 19.6455C767.241 20.6025 768.354 21.0811 769.702 21.0811C770.659 21.0811 771.47 20.8857 772.134 20.4951C772.798 20.1045 773.379 19.5869 773.877 18.9424L775.532 20.2314C774.204 22.2725 772.212 23.293 769.556 23.293ZM769.219 9.08398C768.125 9.08398 767.207 9.48438 766.465 10.2852C765.723 11.0762 765.264 12.1895 765.088 13.625H773.027V13.4199C772.949 12.043 772.578 10.9785 771.914 10.2266C771.25 9.46484 770.352 9.08398 769.219 9.08398ZM781.831 23H779.121V0.5H781.831V23ZM789.126 23H786.416V7.15039H789.126V23ZM786.196 2.94629C786.196 2.50684 786.328 2.13574 786.592 1.83301C786.865 1.53027 787.266 1.37891 787.793 1.37891C788.32 1.37891 788.721 1.53027 788.994 1.83301C789.268 2.13574 789.404 2.50684 789.404 2.94629C789.404 3.38574 789.268 3.75195 788.994 4.04492C788.721 4.33789 788.32 4.48438 787.793 4.48438C787.266 4.48438 786.865 4.33789 786.592 4.04492C786.328 3.75195 786.196 3.38574 786.196 2.94629ZM800.054 23.293C797.905 23.293 796.157 22.5898 794.81 21.1836C793.462 19.7676 792.788 17.8779 792.788 15.5146V15.0166C792.788 13.4443 793.086 12.043 793.682 10.8125C794.287 9.57227 795.127 8.60547 796.201 7.91211C797.285 7.20898 798.457 6.85742 799.717 6.85742C801.777 6.85742 803.379 7.53613 804.521 8.89355C805.664 10.251 806.235 12.1943 806.235 14.7236V15.8516H795.498C795.537 17.4141 795.991 18.6787 796.86 19.6455C797.739 20.6025 798.853 21.0811 800.2 21.0811C801.157 21.0811 801.968 20.8857 802.632 20.4951C803.296 20.1045 803.877 19.5869 804.375 18.9424L806.03 20.2314C804.702 22.2725 802.71 23.293 800.054 23.293ZM799.717 9.08398C798.623 9.08398 797.705 9.48438 796.963 10.2852C796.221 11.0762 795.762 12.1895 795.586 13.625H803.525V13.4199C803.447 12.043 803.076 10.9785 802.412 10.2266C801.748 9.46484 800.85 9.08398 799.717 9.08398ZM814.409 19.3232L818.335 7.15039H821.104L815.42 23H813.354L807.612 7.15039H810.381L814.409 19.3232ZM830.083 23.293C827.935 23.293 826.187 22.5898 824.839 21.1836C823.491 19.7676 822.817 17.8779 822.817 15.5146V15.0166C822.817 13.4443 823.115 12.043 823.711 10.8125C824.316 9.57227 825.156 8.60547 826.23 7.91211C827.314 7.20898 828.486 6.85742 829.746 6.85742C831.807 6.85742 833.408 7.53613 834.551 8.89355C835.693 10.251 836.265 12.1943 836.265 14.7236V15.8516H825.527C825.566 17.4141 826.021 18.6787 826.89 19.6455C827.769 20.6025 828.882 21.0811 830.229 21.0811C831.187 21.0811 831.997 20.8857 832.661 20.4951C833.325 20.1045 833.906 19.5869 834.404 18.9424L836.06 20.2314C834.731 22.2725 832.739 23.293 830.083 23.293ZM829.746 9.08398C828.652 9.08398 827.734 9.48438 826.992 10.2852C826.25 11.0762 825.791 12.1895 825.615 13.625H833.555V13.4199C833.477 12.043 833.105 10.9785 832.441 10.2266C831.777 9.46484 830.879 9.08398 829.746 9.08398ZM848.643 18.7959C848.643 18.0635 848.364 17.4971 847.808 17.0967C847.261 16.6865 846.299 16.335 844.922 16.042C843.555 15.749 842.466 15.3975 841.655 14.9873C840.854 14.5771 840.259 14.0889 839.868 13.5225C839.487 12.9561 839.297 12.2822 839.297 11.501C839.297 10.2021 839.844 9.10352 840.938 8.20508C842.041 7.30664 843.447 6.85742 845.156 6.85742C846.953 6.85742 848.408 7.32129 849.521 8.24902C850.645 9.17676 851.206 10.3633 851.206 11.8086H848.481C848.481 11.0664 848.164 10.4268 847.529 9.88965C846.904 9.35254 846.113 9.08398 845.156 9.08398C844.17 9.08398 843.398 9.29883 842.842 9.72852C842.285 10.1582 842.007 10.7197 842.007 11.4131C842.007 12.0674 842.266 12.5605 842.783 12.8926C843.301 13.2246 844.233 13.542 845.581 13.8447C846.938 14.1475 848.037 14.5088 848.877 14.9287C849.717 15.3486 850.337 15.8564 850.737 16.4521C851.147 17.0381 851.353 17.7559 851.353 18.6055C851.353 20.0215 850.786 21.1592 849.653 22.0186C848.521 22.8682 847.051 23.293 845.244 23.293C843.975 23.293 842.852 23.0684 841.875 22.6191C840.898 22.1699 840.132 21.5449 839.575 20.7441C839.028 19.9336 838.755 19.0596 838.755 18.1221H841.465C841.514 19.0303 841.875 19.7529 842.549 20.29C843.232 20.8174 844.131 21.0811 845.244 21.0811C846.27 21.0811 847.09 20.876 847.705 20.4658C848.33 20.0459 848.643 19.4893 848.643 18.7959ZM865.269 23H862.559V7.15039H865.269V23ZM862.339 2.94629C862.339 2.50684 862.471 2.13574 862.734 1.83301C863.008 1.53027 863.408 1.37891 863.936 1.37891C864.463 1.37891 864.863 1.53027 865.137 1.83301C865.41 2.13574 865.547 2.50684 865.547 2.94629C865.547 3.38574 865.41 3.75195 865.137 4.04492C864.863 4.33789 864.463 4.48438 863.936 4.48438C863.408 4.48438 863.008 4.33789 862.734 4.04492C862.471 3.75195 862.339 3.38574 862.339 2.94629ZM872.183 7.15039L872.271 9.14258C873.481 7.61914 875.063 6.85742 877.017 6.85742C880.366 6.85742 882.056 8.74707 882.085 12.5264V23H879.375V12.5117C879.365 11.3691 879.102 10.5244 878.584 9.97754C878.076 9.43066 877.28 9.15723 876.196 9.15723C875.317 9.15723 874.546 9.3916 873.882 9.86035C873.218 10.3291 872.7 10.9443 872.329 11.7061V23H869.619V7.15039H872.183ZM898.799 19.0303L902.49 7.15039H905.391L899.019 25.4463C898.032 28.083 896.465 29.4014 894.316 29.4014L893.804 29.3574L892.793 29.167V26.9697L893.525 27.0283C894.443 27.0283 895.156 26.8428 895.664 26.4717C896.182 26.1006 896.606 25.4219 896.938 24.4355L897.539 22.8242L891.885 7.15039H894.844L898.799 19.0303ZM906.87 14.9287C906.87 13.376 907.173 11.9795 907.778 10.7393C908.394 9.49902 909.243 8.54199 910.327 7.86816C911.421 7.19434 912.666 6.85742 914.062 6.85742C916.221 6.85742 917.964 7.60449 919.292 9.09863C920.63 10.5928 921.299 12.5801 921.299 15.0605V15.251C921.299 16.7939 921.001 18.1807 920.405 19.4111C919.819 20.6318 918.975 21.584 917.871 22.2676C916.777 22.9512 915.518 23.293 914.092 23.293C911.943 23.293 910.2 22.5459 908.862 21.0518C907.534 19.5576 906.87 17.5801 906.87 15.1191V14.9287ZM909.595 15.251C909.595 17.0088 910 18.4199 910.811 19.4844C911.631 20.5488 912.725 21.0811 914.092 21.0811C915.469 21.0811 916.562 20.5439 917.373 19.4697C918.184 18.3857 918.589 16.8721 918.589 14.9287C918.589 13.1904 918.174 11.7842 917.344 10.71C916.523 9.62598 915.43 9.08398 914.062 9.08398C912.725 9.08398 911.646 9.61621 910.825 10.6807C910.005 11.7451 909.595 13.2686 909.595 15.251ZM934.482 21.4326C933.428 22.6729 931.88 23.293 929.839 23.293C928.149 23.293 926.86 22.8047 925.972 21.8281C925.093 20.8418 924.648 19.3867 924.639 17.4629V7.15039H927.349V17.3896C927.349 19.792 928.325 20.9932 930.278 20.9932C932.349 20.9932 933.726 20.2217 934.409 18.6787V7.15039H937.119V23H934.541L934.482 21.4326ZM941.162 27.248L939.624 26.1934C940.542 24.9141 941.021 23.5957 941.06 22.2383V19.792H943.711V21.916C943.711 22.9023 943.467 23.8887 942.979 24.875C942.5 25.8613 941.895 26.6523 941.162 27.248ZM968.613 19.2646L971.66 7.15039H974.37L969.756 23H967.559L963.706 10.9883L959.956 23H957.759L953.159 7.15039H955.854L958.975 19.0156L962.666 7.15039H964.849L968.613 19.2646ZM979.849 9.06934C981.05 7.59473 982.612 6.85742 984.536 6.85742C987.886 6.85742 989.575 8.74707 989.604 12.5264V23H986.895V12.5117C986.885 11.3691 986.621 10.5244 986.104 9.97754C985.596 9.43066 984.8 9.15723 983.716 9.15723C982.837 9.15723 982.065 9.3916 981.401 9.86035C980.737 10.3291 980.22 10.9443 979.849 11.7061V23H977.139V0.5H979.849V9.06934ZM992.944 14.9287C992.944 13.376 993.247 11.9795 993.853 10.7393C994.468 9.49902 995.317 8.54199 996.401 7.86816C997.495 7.19434 998.74 6.85742 1000.14 6.85742C1002.29 6.85742 1004.04 7.60449 1005.37 9.09863C1006.7 10.5928 1007.37 12.5801 1007.37 15.0605V15.251C1007.37 16.7939 1007.08 18.1807 1006.48 19.4111C1005.89 20.6318 1005.05 21.584 1003.95 22.2676C1002.85 22.9512 1001.59 23.293 1000.17 23.293C998.018 23.293 996.274 22.5459 994.937 21.0518C993.608 19.5576 992.944 17.5801 992.944 15.1191V14.9287ZM995.669 15.251C995.669 17.0088 996.074 18.4199 996.885 19.4844C997.705 20.5488 998.799 21.0811 1000.17 21.0811C1001.54 21.0811 1002.64 20.5439 1003.45 19.4697C1004.26 18.3857 1004.66 16.8721 1004.66 14.9287C1004.66 13.1904 1004.25 11.7842 1003.42 10.71C1002.6 9.62598 1001.5 9.08398 1000.14 9.08398C998.799 9.08398 997.72 9.61621 996.899 10.6807C996.079 11.7451 995.669 13.2686 995.669 15.251ZM1021.89 3.3125V7.15039H1024.85V9.24512H1021.89V19.0742C1021.89 19.709 1022.02 20.1875 1022.29 20.5098C1022.55 20.8223 1023 20.9785 1023.63 20.9785C1023.95 20.9785 1024.38 20.9199 1024.92 20.8027V23C1024.21 23.1953 1023.52 23.293 1022.84 23.293C1021.63 23.293 1020.72 22.9268 1020.1 22.1943C1019.49 21.4619 1019.18 20.4219 1019.18 19.0742V9.24512H1016.29V7.15039H1019.18V3.3125H1021.89ZM1037.81 21.4326C1036.76 22.6729 1035.21 23.293 1033.17 23.293C1031.48 23.293 1030.19 22.8047 1029.3 21.8281C1028.42 20.8418 1027.98 19.3867 1027.97 17.4629V7.15039H1030.68V17.3896C1030.68 19.792 1031.66 20.9932 1033.61 20.9932C1035.68 20.9932 1037.06 20.2217 1037.74 18.6787V7.15039H1040.45V23H1037.87L1037.81 21.4326ZM1057.78 9.30371H1055.57C1056.13 10.124 1056.42 11.0469 1056.43 12.0723V12.4385C1056.43 13.3955 1056.16 14.2793 1055.61 15.0898C1055.07 15.9004 1054.33 16.5352 1053.37 16.9941C1052.42 17.4531 1051.36 17.6826 1050.19 17.6826C1049.42 17.6826 1048.68 17.5801 1047.96 17.375C1047.46 17.7852 1047.2 18.3027 1047.2 18.9277C1047.2 19.709 1047.8 20.1094 1048.99 20.1289H1051.67C1053.62 20.1387 1055.1 20.5098 1056.11 21.2422C1057.11 21.9648 1057.62 23.0244 1057.62 24.4209C1057.62 25.2412 1057.27 26.042 1056.58 26.8232C1055.89 27.6143 1054.96 28.2441 1053.76 28.7129C1052.57 29.1816 1051.24 29.416 1049.77 29.416C1047.72 29.416 1046.08 29.0352 1044.83 28.2734C1043.59 27.5215 1042.97 26.5498 1042.97 25.3584C1042.97 24.5479 1043.2 23.8057 1043.66 23.1318C1044.12 22.458 1044.76 21.916 1045.58 21.5059C1045.03 21.0469 1044.76 20.4561 1044.76 19.7334C1044.76 18.5225 1045.32 17.5166 1046.44 16.7158C1044.74 15.6807 1043.89 14.2012 1043.89 12.2773V12.1162C1043.89 10.583 1044.48 9.32324 1045.65 8.33691C1046.83 7.35059 1048.33 6.85742 1050.16 6.85742C1050.94 6.85742 1051.68 6.95508 1052.37 7.15039H1057.75L1057.78 9.30371ZM1047.38 22.2676C1046.83 22.5215 1046.41 22.873 1046.12 23.3223C1045.83 23.7812 1045.68 24.2793 1045.68 24.8164C1045.68 25.5391 1046.04 26.1152 1046.76 26.5449C1047.49 26.9844 1048.49 27.2041 1049.77 27.2041C1051.19 27.2041 1052.4 26.9258 1053.4 26.3691C1054.4 25.8125 1054.91 25.1631 1054.91 24.4209C1054.91 23.6982 1054.65 23.1807 1054.15 22.8682C1053.64 22.5459 1052.86 22.375 1051.8 22.3555H1048.3L1047.38 22.2676ZM1046.6 12.4385C1046.6 13.249 1046.94 13.957 1047.63 14.5625C1048.31 15.1582 1049.17 15.4561 1050.19 15.4561C1051.2 15.4561 1052.04 15.1582 1052.71 14.5625C1053.38 13.9668 1053.72 13.2393 1053.72 12.3799V12.1162C1053.72 11.2666 1053.38 10.5488 1052.71 9.96289C1052.04 9.37695 1051.19 9.08398 1050.16 9.08398C1049.14 9.08398 1048.29 9.37695 1047.61 9.96289C1046.94 10.5488 1046.6 11.2812 1046.6 12.1602V12.4385ZM1069.66 18.7959C1069.66 18.0635 1069.38 17.4971 1068.82 17.0967C1068.28 16.6865 1067.31 16.335 1065.94 16.042C1064.57 15.749 1063.48 15.3975 1062.67 14.9873C1061.87 14.5771 1061.27 14.0889 1060.88 13.5225C1060.5 12.9561 1060.31 12.2822 1060.31 11.501C1060.31 10.2021 1060.86 9.10352 1061.95 8.20508C1063.06 7.30664 1064.46 6.85742 1066.17 6.85742C1067.97 6.85742 1069.42 7.32129 1070.54 8.24902C1071.66 9.17676 1072.22 10.3633 1072.22 11.8086H1069.5C1069.5 11.0664 1069.18 10.4268 1068.54 9.88965C1067.92 9.35254 1067.13 9.08398 1066.17 9.08398C1065.19 9.08398 1064.41 9.29883 1063.86 9.72852C1063.3 10.1582 1063.02 10.7197 1063.02 11.4131C1063.02 12.0674 1063.28 12.5605 1063.8 12.8926C1064.32 13.2246 1065.25 13.542 1066.6 13.8447C1067.95 14.1475 1069.05 14.5088 1069.89 14.9287C1070.73 15.3486 1071.35 15.8564 1071.75 16.4521C1072.16 17.0381 1072.37 17.7559 1072.37 18.6055C1072.37 20.0215 1071.8 21.1592 1070.67 22.0186C1069.54 22.8682 1068.07 23.293 1066.26 23.293C1064.99 23.293 1063.87 23.0684 1062.89 22.6191C1061.91 22.1699 1061.15 21.5449 1060.59 20.7441C1060.04 19.9336 1059.77 19.0596 1059.77 18.1221H1062.48C1062.53 19.0303 1062.89 19.7529 1063.56 20.29C1064.25 20.8174 1065.15 21.0811 1066.26 21.0811C1067.29 21.0811 1068.11 20.876 1068.72 20.4658C1069.35 20.0459 1069.66 19.4893 1069.66 18.7959ZM1093.12 23C1092.97 22.6875 1092.84 22.1309 1092.74 21.3301C1091.48 22.6387 1089.98 23.293 1088.23 23.293C1086.67 23.293 1085.39 22.8535 1084.38 21.9746C1083.38 21.0859 1082.89 19.9629 1082.89 18.6055C1082.89 16.9551 1083.51 15.6758 1084.76 14.7676C1086.02 13.8496 1087.79 13.3906 1090.06 13.3906H1092.7V12.1455C1092.7 11.1982 1092.42 10.4463 1091.85 9.88965C1091.28 9.32324 1090.45 9.04004 1089.35 9.04004C1088.38 9.04004 1087.57 9.28418 1086.91 9.77246C1086.26 10.2607 1085.93 10.8516 1085.93 11.5449H1083.21C1083.21 10.7539 1083.49 9.99219 1084.04 9.25977C1084.61 8.51758 1085.37 7.93164 1086.33 7.50195C1087.29 7.07227 1088.35 6.85742 1089.51 6.85742C1091.33 6.85742 1092.76 7.31641 1093.8 8.23438C1094.83 9.14258 1095.37 10.3975 1095.41 11.999V19.2939C1095.41 20.749 1095.6 21.9062 1095.97 22.7656V23H1093.12ZM1088.63 20.9346C1089.48 20.9346 1090.28 20.7148 1091.04 20.2754C1091.81 19.8359 1092.36 19.2646 1092.7 18.5615V15.3096H1090.58C1087.26 15.3096 1085.6 16.2812 1085.6 18.2246C1085.6 19.0742 1085.88 19.7383 1086.45 20.2168C1087.01 20.6953 1087.74 20.9346 1088.63 20.9346ZM1102.22 7.15039L1102.31 9.14258C1103.52 7.61914 1105.1 6.85742 1107.06 6.85742C1110.41 6.85742 1112.09 8.74707 1112.12 12.5264V23H1109.41V12.5117C1109.4 11.3691 1109.14 10.5244 1108.62 9.97754C1108.12 9.43066 1107.32 9.15723 1106.24 9.15723C1105.36 9.15723 1104.58 9.3916 1103.92 9.86035C1103.26 10.3291 1102.74 10.9443 1102.37 11.7061V23H1099.66V7.15039H1102.22ZM1115.55 14.9434C1115.55 12.5117 1116.13 10.5586 1117.28 9.08398C1118.43 7.59961 1119.94 6.85742 1121.81 6.85742C1123.66 6.85742 1125.13 7.49219 1126.22 8.76172V0.5H1128.93V23H1126.44L1126.3 21.3008C1125.22 22.6289 1123.71 23.293 1121.78 23.293C1119.94 23.293 1118.44 22.541 1117.28 21.0371C1116.13 19.5332 1115.55 17.5703 1115.55 15.1484V14.9434ZM1118.26 15.251C1118.26 17.0479 1118.63 18.4541 1119.38 19.4697C1120.12 20.4854 1121.14 20.9932 1122.45 20.9932C1124.17 20.9932 1125.42 20.2217 1126.22 18.6787V11.3984C1125.41 9.9043 1124.16 9.15723 1122.48 9.15723C1121.15 9.15723 1120.12 9.66992 1119.38 10.6953C1118.63 11.7207 1118.26 13.2393 1118.26 15.251ZM1153.97 15.251C1153.97 17.6631 1153.42 19.6064 1152.32 21.0811C1151.22 22.5557 1149.72 23.293 1147.84 23.293C1145.91 23.293 1144.4 22.6826 1143.3 21.4619V29.0938H1140.59V7.15039H1143.06L1143.19 8.9082C1144.3 7.54102 1145.83 6.85742 1147.79 6.85742C1149.7 6.85742 1151.2 7.5752 1152.3 9.01074C1153.42 10.4463 1153.97 12.4434 1153.97 15.002V15.251ZM1151.26 14.9434C1151.26 13.1562 1150.88 11.7451 1150.12 10.71C1149.36 9.6748 1148.32 9.15723 1146.99 9.15723C1145.35 9.15723 1144.12 9.88477 1143.3 11.3398V18.9131C1144.11 20.3584 1145.35 21.0811 1147.02 21.0811C1148.32 21.0811 1149.35 20.5684 1150.11 19.543C1150.88 18.5078 1151.26 16.9746 1151.26 14.9434ZM1167.22 21.4326C1166.16 22.6729 1164.61 23.293 1162.57 23.293C1160.88 23.293 1159.59 22.8047 1158.71 21.8281C1157.83 20.8418 1157.38 19.3867 1157.37 17.4629V7.15039H1160.08V17.3896C1160.08 19.792 1161.06 20.9932 1163.01 20.9932C1165.08 20.9932 1166.46 20.2217 1167.14 18.6787V7.15039H1169.85V23H1167.28L1167.22 21.4326ZM1183.21 18.7959C1183.21 18.0635 1182.93 17.4971 1182.38 17.0967C1181.83 16.6865 1180.87 16.335 1179.49 16.042C1178.12 15.749 1177.04 15.3975 1176.23 14.9873C1175.42 14.5771 1174.83 14.0889 1174.44 13.5225C1174.06 12.9561 1173.87 12.2822 1173.87 11.501C1173.87 10.2021 1174.41 9.10352 1175.51 8.20508C1176.61 7.30664 1178.02 6.85742 1179.73 6.85742C1181.52 6.85742 1182.98 7.32129 1184.09 8.24902C1185.21 9.17676 1185.78 10.3633 1185.78 11.8086H1183.05C1183.05 11.0664 1182.73 10.4268 1182.1 9.88965C1181.47 9.35254 1180.68 9.08398 1179.73 9.08398C1178.74 9.08398 1177.97 9.29883 1177.41 9.72852C1176.86 10.1582 1176.58 10.7197 1176.58 11.4131C1176.58 12.0674 1176.84 12.5605 1177.35 12.8926C1177.87 13.2246 1178.8 13.542 1180.15 13.8447C1181.51 14.1475 1182.61 14.5088 1183.45 14.9287C1184.29 15.3486 1184.91 15.8564 1185.31 16.4521C1185.72 17.0381 1185.92 17.7559 1185.92 18.6055C1185.92 20.0215 1185.36 21.1592 1184.22 22.0186C1183.09 22.8682 1181.62 23.293 1179.81 23.293C1178.54 23.293 1177.42 23.0684 1176.45 22.6191C1175.47 22.1699 1174.7 21.5449 1174.15 20.7441C1173.6 19.9336 1173.33 19.0596 1173.33 18.1221H1176.04C1176.08 19.0303 1176.45 19.7529 1177.12 20.29C1177.8 20.8174 1178.7 21.0811 1179.81 21.0811C1180.84 21.0811 1181.66 20.876 1182.28 20.4658C1182.9 20.0459 1183.21 19.4893 1183.21 18.7959ZM1192.16 9.06934C1193.36 7.59473 1194.93 6.85742 1196.85 6.85742C1200.2 6.85742 1201.89 8.74707 1201.92 12.5264V23H1199.21V12.5117C1199.2 11.3691 1198.94 10.5244 1198.42 9.97754C1197.91 9.43066 1197.11 9.15723 1196.03 9.15723C1195.15 9.15723 1194.38 9.3916 1193.72 9.86035C1193.05 10.3291 1192.53 10.9443 1192.16 11.7061V23H1189.45V0.5H1192.16V9.06934ZM1212.55 23.293C1210.41 23.293 1208.66 22.5898 1207.31 21.1836C1205.96 19.7676 1205.29 17.8779 1205.29 15.5146V15.0166C1205.29 13.4443 1205.59 12.043 1206.18 10.8125C1206.79 9.57227 1207.63 8.60547 1208.7 7.91211C1209.79 7.20898 1210.96 6.85742 1212.22 6.85742C1214.28 6.85742 1215.88 7.53613 1217.02 8.89355C1218.16 10.251 1218.74 12.1943 1218.74 14.7236V15.8516H1208C1208.04 17.4141 1208.49 18.6787 1209.36 19.6455C1210.24 20.6025 1211.35 21.0811 1212.7 21.0811C1213.66 21.0811 1214.47 20.8857 1215.13 20.4951C1215.8 20.1045 1216.38 19.5869 1216.88 18.9424L1218.53 20.2314C1217.2 22.2725 1215.21 23.293 1212.55 23.293ZM1212.22 9.08398C1211.12 9.08398 1210.21 9.48438 1209.46 10.2852C1208.72 11.0762 1208.26 12.1895 1208.09 13.625H1216.03V13.4199C1215.95 12.043 1215.58 10.9785 1214.91 10.2266C1214.25 9.46484 1213.35 9.08398 1212.22 9.08398ZM1231.11 18.7959C1231.11 18.0635 1230.83 17.4971 1230.28 17.0967C1229.73 16.6865 1228.77 16.335 1227.39 16.042C1226.03 15.749 1224.94 15.3975 1224.13 14.9873C1223.33 14.5771 1222.73 14.0889 1222.34 13.5225C1221.96 12.9561 1221.77 12.2822 1221.77 11.501C1221.77 10.2021 1222.31 9.10352 1223.41 8.20508C1224.51 7.30664 1225.92 6.85742 1227.63 6.85742C1229.42 6.85742 1230.88 7.32129 1231.99 8.24902C1233.12 9.17676 1233.68 10.3633 1233.68 11.8086H1230.95C1230.95 11.0664 1230.63 10.4268 1230 9.88965C1229.38 9.35254 1228.58 9.08398 1227.63 9.08398C1226.64 9.08398 1225.87 9.29883 1225.31 9.72852C1224.76 10.1582 1224.48 10.7197 1224.48 11.4131C1224.48 12.0674 1224.74 12.5605 1225.25 12.8926C1225.77 13.2246 1226.7 13.542 1228.05 13.8447C1229.41 14.1475 1230.51 14.5088 1231.35 14.9287C1232.19 15.3486 1232.81 15.8564 1233.21 16.4521C1233.62 17.0381 1233.82 17.7559 1233.82 18.6055C1233.82 20.0215 1233.26 21.1592 1232.12 22.0186C1230.99 22.8682 1229.52 23.293 1227.71 23.293C1226.45 23.293 1225.32 23.0684 1224.35 22.6191C1223.37 22.1699 1222.6 21.5449 1222.05 20.7441C1221.5 19.9336 1221.23 19.0596 1221.23 18.1221H1223.94C1223.98 19.0303 1224.35 19.7529 1225.02 20.29C1225.7 20.8174 1226.6 21.0811 1227.71 21.0811C1228.74 21.0811 1229.56 20.876 1230.18 20.4658C1230.8 20.0459 1231.11 19.4893 1231.11 18.7959ZM1254.58 23C1254.42 22.6875 1254.3 22.1309 1254.2 21.3301C1252.94 22.6387 1251.44 23.293 1249.69 23.293C1248.12 23.293 1246.84 22.8535 1245.83 21.9746C1244.84 21.0859 1244.34 19.9629 1244.34 18.6055C1244.34 16.9551 1244.97 15.6758 1246.22 14.7676C1247.48 13.8496 1249.24 13.3906 1251.52 13.3906H1254.16V12.1455C1254.16 11.1982 1253.87 10.4463 1253.31 9.88965C1252.74 9.32324 1251.9 9.04004 1250.8 9.04004C1249.83 9.04004 1249.02 9.28418 1248.37 9.77246C1247.71 10.2607 1247.39 10.8516 1247.39 11.5449H1244.66C1244.66 10.7539 1244.94 9.99219 1245.5 9.25977C1246.06 8.51758 1246.83 7.93164 1247.78 7.50195C1248.75 7.07227 1249.81 6.85742 1250.96 6.85742C1252.79 6.85742 1254.22 7.31641 1255.25 8.23438C1256.29 9.14258 1256.83 10.3975 1256.87 11.999V19.2939C1256.87 20.749 1257.05 21.9062 1257.42 22.7656V23H1254.58ZM1250.08 20.9346C1250.93 20.9346 1251.74 20.7148 1252.5 20.2754C1253.26 19.8359 1253.81 19.2646 1254.16 18.5615V15.3096H1252.03C1248.71 15.3096 1247.05 16.2812 1247.05 18.2246C1247.05 19.0742 1247.33 19.7383 1247.9 20.2168C1248.47 20.6953 1249.19 20.9346 1250.08 20.9346ZM1263.68 7.15039L1263.76 9.14258C1264.98 7.61914 1266.56 6.85742 1268.51 6.85742C1271.86 6.85742 1273.55 8.74707 1273.58 12.5264V23H1270.87V12.5117C1270.86 11.3691 1270.6 10.5244 1270.08 9.97754C1269.57 9.43066 1268.77 9.15723 1267.69 9.15723C1266.81 9.15723 1266.04 9.3916 1265.38 9.86035C1264.71 10.3291 1264.19 10.9443 1263.82 11.7061V23H1261.11V7.15039H1263.68ZM1277.01 14.9434C1277.01 12.5117 1277.58 10.5586 1278.74 9.08398C1279.89 7.59961 1281.4 6.85742 1283.26 6.85742C1285.12 6.85742 1286.59 7.49219 1287.67 8.76172V0.5H1290.38V23H1287.89L1287.76 21.3008C1286.67 22.6289 1285.17 23.293 1283.23 23.293C1281.4 23.293 1279.9 22.541 1278.74 21.0371C1277.58 19.5332 1277.01 17.5703 1277.01 15.1484V14.9434ZM1279.72 15.251C1279.72 17.0479 1280.09 18.4541 1280.83 19.4697C1281.57 20.4854 1282.6 20.9932 1283.91 20.9932C1285.62 20.9932 1286.88 20.2217 1287.67 18.6787V11.3984C1286.86 9.9043 1285.62 9.15723 1283.94 9.15723C1282.61 9.15723 1281.57 9.66992 1280.83 10.6953C1280.09 11.7207 1279.72 13.2393 1279.72 15.251ZM1304.99 23H1302.28V0.5H1304.99V23ZM1315.91 23.293C1313.76 23.293 1312.02 22.5898 1310.67 21.1836C1309.32 19.7676 1308.65 17.8779 1308.65 15.5146V15.0166C1308.65 13.4443 1308.95 12.043 1309.54 10.8125C1310.15 9.57227 1310.99 8.60547 1312.06 7.91211C1313.14 7.20898 1314.32 6.85742 1315.58 6.85742C1317.64 6.85742 1319.24 7.53613 1320.38 8.89355C1321.52 10.251 1322.09 12.1943 1322.09 14.7236V15.8516H1311.36C1311.4 17.4141 1311.85 18.6787 1312.72 19.6455C1313.6 20.6025 1314.71 21.0811 1316.06 21.0811C1317.02 21.0811 1317.83 20.8857 1318.49 20.4951C1319.16 20.1045 1319.74 19.5869 1320.23 18.9424L1321.89 20.2314C1320.56 22.2725 1318.57 23.293 1315.91 23.293ZM1315.58 9.08398C1314.48 9.08398 1313.56 9.48438 1312.82 10.2852C1312.08 11.0762 1311.62 12.1895 1311.45 13.625H1319.38V13.4199C1319.31 12.043 1318.94 10.9785 1318.27 10.2266C1317.61 9.46484 1316.71 9.08398 1315.58 9.08398ZM1335.03 23C1334.87 22.6875 1334.75 22.1309 1334.65 21.3301C1333.39 22.6387 1331.88 23.293 1330.14 23.293C1328.57 23.293 1327.29 22.8535 1326.28 21.9746C1325.29 21.0859 1324.79 19.9629 1324.79 18.6055C1324.79 16.9551 1325.42 15.6758 1326.67 14.7676C1327.92 13.8496 1329.69 13.3906 1331.97 13.3906H1334.6V12.1455C1334.6 11.1982 1334.32 10.4463 1333.75 9.88965C1333.19 9.32324 1332.35 9.04004 1331.25 9.04004C1330.28 9.04004 1329.47 9.28418 1328.82 9.77246C1328.16 10.2607 1327.84 10.8516 1327.84 11.5449H1325.11C1325.11 10.7539 1325.39 9.99219 1325.95 9.25977C1326.51 8.51758 1327.28 7.93164 1328.23 7.50195C1329.2 7.07227 1330.26 6.85742 1331.41 6.85742C1333.24 6.85742 1334.67 7.31641 1335.7 8.23438C1336.74 9.14258 1337.28 10.3975 1337.31 11.999V19.2939C1337.31 20.749 1337.5 21.9062 1337.87 22.7656V23H1335.03ZM1330.53 20.9346C1331.38 20.9346 1332.19 20.7148 1332.95 20.2754C1333.71 19.8359 1334.26 19.2646 1334.6 18.5615V15.3096H1332.48C1329.16 15.3096 1327.5 16.2812 1327.5 18.2246C1327.5 19.0742 1327.78 19.7383 1328.35 20.2168C1328.92 20.6953 1329.64 20.9346 1330.53 20.9346ZM1340.9 14.9434C1340.9 12.5117 1341.48 10.5586 1342.63 9.08398C1343.78 7.59961 1345.29 6.85742 1347.16 6.85742C1349.01 6.85742 1350.48 7.49219 1351.57 8.76172V0.5H1354.28V23H1351.79L1351.66 21.3008C1350.57 22.6289 1349.06 23.293 1347.13 23.293C1345.29 23.293 1343.79 22.541 1342.63 21.0371C1341.48 19.5332 1340.9 17.5703 1340.9 15.1484V14.9434ZM1343.61 15.251C1343.61 17.0479 1343.98 18.4541 1344.73 19.4697C1345.47 20.4854 1346.49 20.9932 1347.8 20.9932C1349.52 20.9932 1350.78 20.2217 1351.57 18.6787V11.3984C1350.76 9.9043 1349.51 9.15723 1347.83 9.15723C1346.5 9.15723 1345.47 9.66992 1344.73 10.6953C1343.98 11.7207 1343.61 13.2393 1343.61 15.251ZM1367.72 18.7959C1367.72 18.0635 1367.45 17.4971 1366.89 17.0967C1366.34 16.6865 1365.38 16.335 1364 16.042C1362.64 15.749 1361.55 15.3975 1360.74 14.9873C1359.94 14.5771 1359.34 14.0889 1358.95 13.5225C1358.57 12.9561 1358.38 12.2822 1358.38 11.501C1358.38 10.2021 1358.93 9.10352 1360.02 8.20508C1361.12 7.30664 1362.53 6.85742 1364.24 6.85742C1366.04 6.85742 1367.49 7.32129 1368.6 8.24902C1369.73 9.17676 1370.29 10.3633 1370.29 11.8086H1367.56C1367.56 11.0664 1367.25 10.4268 1366.61 9.88965C1365.99 9.35254 1365.2 9.08398 1364.24 9.08398C1363.25 9.08398 1362.48 9.29883 1361.92 9.72852C1361.37 10.1582 1361.09 10.7197 1361.09 11.4131C1361.09 12.0674 1361.35 12.5605 1361.87 12.8926C1362.38 13.2246 1363.32 13.542 1364.66 13.8447C1366.02 14.1475 1367.12 14.5088 1367.96 14.9287C1368.8 15.3486 1369.42 15.8564 1369.82 16.4521C1370.23 17.0381 1370.43 17.7559 1370.43 18.6055C1370.43 20.0215 1369.87 21.1592 1368.74 22.0186C1367.6 22.8682 1366.13 23.293 1364.33 23.293C1363.06 23.293 1361.93 23.0684 1360.96 22.6191C1359.98 22.1699 1359.21 21.5449 1358.66 20.7441C1358.11 19.9336 1357.84 19.0596 1357.84 18.1221H1360.55C1360.6 19.0303 1360.96 19.7529 1361.63 20.29C1362.31 20.8174 1363.21 21.0811 1364.33 21.0811C1365.35 21.0811 1366.17 20.876 1366.79 20.4658C1367.41 20.0459 1367.72 19.4893 1367.72 18.7959ZM7.23633 54.0303L10.9277 42.1504H13.8281L7.45605 60.4463C6.46973 63.083 4.90234 64.4014 2.75391 64.4014L2.24121 64.3574L1.23047 64.167V61.9697L1.96289 62.0283C2.88086 62.0283 3.59375 61.8428 4.10156 61.4717C4.61914 61.1006 5.04395 60.4219 5.37598 59.4355L5.97656 57.8242L0.322266 42.1504H3.28125L7.23633 54.0303ZM15.3076 49.9287C15.3076 48.376 15.6104 46.9795 16.2158 45.7393C16.8311 44.499 17.6807 43.542 18.7646 42.8682C19.8584 42.1943 21.1035 41.8574 22.5 41.8574C24.6582 41.8574 26.4014 42.6045 27.7295 44.0986C29.0674 45.5928 29.7363 47.5801 29.7363 50.0605V50.251C29.7363 51.7939 29.4385 53.1807 28.8428 54.4111C28.2568 55.6318 27.4121 56.584 26.3086 57.2676C25.2148 57.9512 23.9551 58.293 22.5293 58.293C20.3809 58.293 18.6377 57.5459 17.2998 56.0518C15.9717 54.5576 15.3076 52.5801 15.3076 50.1191V49.9287ZM18.0322 50.251C18.0322 52.0088 18.4375 53.4199 19.248 54.4844C20.0684 55.5488 21.1621 56.0811 22.5293 56.0811C23.9062 56.0811 25 55.5439 25.8105 54.4697C26.6211 53.3857 27.0264 51.8721 27.0264 49.9287C27.0264 48.1904 26.6113 46.7842 25.7812 45.71C24.9609 44.626 23.8672 44.084 22.5 44.084C21.1621 44.084 20.083 44.6162 19.2627 45.6807C18.4424 46.7451 18.0322 48.2686 18.0322 50.251ZM42.9199 56.4326C41.8652 57.6729 40.3174 58.293 38.2764 58.293C36.5869 58.293 35.2979 57.8047 34.4092 56.8281C33.5303 55.8418 33.0859 54.3867 33.0762 52.4629V42.1504H35.7861V52.3896C35.7861 54.792 36.7627 55.9932 38.7158 55.9932C40.7861 55.9932 42.1631 55.2217 42.8467 53.6787V42.1504H45.5566V58H42.9785L42.9199 56.4326ZM56.4111 49.9287C56.4111 48.376 56.7139 46.9795 57.3193 45.7393C57.9346 44.499 58.7842 43.542 59.8682 42.8682C60.9619 42.1943 62.207 41.8574 63.6035 41.8574C65.7617 41.8574 67.5049 42.6045 68.833 44.0986C70.1709 45.5928 70.8398 47.5801 70.8398 50.0605V50.251C70.8398 51.7939 70.542 53.1807 69.9463 54.4111C69.3604 55.6318 68.5156 56.584 67.4121 57.2676C66.3184 57.9512 65.0586 58.293 63.6328 58.293C61.4844 58.293 59.7412 57.5459 58.4033 56.0518C57.0752 54.5576 56.4111 52.5801 56.4111 50.1191V49.9287ZM59.1357 50.251C59.1357 52.0088 59.541 53.4199 60.3516 54.4844C61.1719 55.5488 62.2656 56.0811 63.6328 56.0811C65.0098 56.0811 66.1035 55.5439 66.9141 54.4697C67.7246 53.3857 68.1299 51.8721 68.1299 49.9287C68.1299 48.1904 67.7148 46.7842 66.8848 45.71C66.0645 44.626 64.9707 44.084 63.6035 44.084C62.2656 44.084 61.1865 44.6162 60.3662 45.6807C59.5459 46.7451 59.1357 48.2686 59.1357 50.251ZM76.8018 42.1504L76.8896 44.1426C78.1006 42.6191 79.6826 41.8574 81.6357 41.8574C84.9854 41.8574 86.6748 43.7471 86.7041 47.5264V58H83.9941V47.5117C83.9844 46.3691 83.7207 45.5244 83.2031 44.9775C82.6953 44.4307 81.8994 44.1572 80.8154 44.1572C79.9365 44.1572 79.165 44.3916 78.501 44.8604C77.8369 45.3291 77.3193 45.9443 76.9482 46.7061V58H74.2383V42.1504H76.8018ZM101.909 38.3125V42.1504H104.868V44.2451H101.909V54.0742C101.909 54.709 102.041 55.1875 102.305 55.5098C102.568 55.8223 103.018 55.9785 103.652 55.9785C103.965 55.9785 104.395 55.9199 104.941 55.8027V58C104.229 58.1953 103.535 58.293 102.861 58.293C101.65 58.293 100.737 57.9268 100.122 57.1943C99.5068 56.4619 99.1992 55.4219 99.1992 54.0742V44.2451H96.3135V42.1504H99.1992V38.3125H101.909ZM107.036 49.9287C107.036 48.376 107.339 46.9795 107.944 45.7393C108.56 44.499 109.409 43.542 110.493 42.8682C111.587 42.1943 112.832 41.8574 114.229 41.8574C116.387 41.8574 118.13 42.6045 119.458 44.0986C120.796 45.5928 121.465 47.5801 121.465 50.0605V50.251C121.465 51.7939 121.167 53.1807 120.571 54.4111C119.985 55.6318 119.141 56.584 118.037 57.2676C116.943 57.9512 115.684 58.293 114.258 58.293C112.109 58.293 110.366 57.5459 109.028 56.0518C107.7 54.5576 107.036 52.5801 107.036 50.1191V49.9287ZM109.761 50.251C109.761 52.0088 110.166 53.4199 110.977 54.4844C111.797 55.5488 112.891 56.0811 114.258 56.0811C115.635 56.0811 116.729 55.5439 117.539 54.4697C118.35 53.3857 118.755 51.8721 118.755 49.9287C118.755 48.1904 118.34 46.7842 117.51 45.71C116.689 44.626 115.596 44.084 114.229 44.084C112.891 44.084 111.812 44.6162 110.991 45.6807C110.171 46.7451 109.761 48.2686 109.761 50.251ZM135.981 38.3125V42.1504H138.94V44.2451H135.981V54.0742C135.981 54.709 136.113 55.1875 136.377 55.5098C136.641 55.8223 137.09 55.9785 137.725 55.9785C138.037 55.9785 138.467 55.9199 139.014 55.8027V58C138.301 58.1953 137.607 58.293 136.934 58.293C135.723 58.293 134.81 57.9268 134.194 57.1943C133.579 56.4619 133.271 55.4219 133.271 54.0742V44.2451H130.386V42.1504H133.271V38.3125H135.981ZM144.829 44.0693C146.03 42.5947 147.593 41.8574 149.517 41.8574C152.866 41.8574 154.556 43.7471 154.585 47.5264V58H151.875V47.5117C151.865 46.3691 151.602 45.5244 151.084 44.9775C150.576 44.4307 149.78 44.1572 148.696 44.1572C147.817 44.1572 147.046 44.3916 146.382 44.8604C145.718 45.3291 145.2 45.9443 144.829 46.7061V58H142.119V35.5H144.829V44.0693ZM165.22 58.293C163.071 58.293 161.323 57.5898 159.976 56.1836C158.628 54.7676 157.954 52.8779 157.954 50.5146V50.0166C157.954 48.4443 158.252 47.043 158.848 45.8125C159.453 44.5723 160.293 43.6055 161.367 42.9121C162.451 42.209 163.623 41.8574 164.883 41.8574C166.943 41.8574 168.545 42.5361 169.688 43.8936C170.83 45.251 171.401 47.1943 171.401 49.7236V50.8516H160.664C160.703 52.4141 161.157 53.6787 162.026 54.6455C162.905 55.6025 164.019 56.0811 165.366 56.0811C166.323 56.0811 167.134 55.8857 167.798 55.4951C168.462 55.1045 169.043 54.5869 169.541 53.9424L171.196 55.2314C169.868 57.2725 167.876 58.293 165.22 58.293ZM164.883 44.084C163.789 44.084 162.871 44.4844 162.129 45.2852C161.387 46.0762 160.928 47.1895 160.752 48.625H168.691V48.4199C168.613 47.043 168.242 45.9785 167.578 45.2266C166.914 44.4648 166.016 44.084 164.883 44.084ZM184.556 42.1504L184.644 44.1426C185.854 42.6191 187.437 41.8574 189.39 41.8574C192.739 41.8574 194.429 43.7471 194.458 47.5264V58H191.748V47.5117C191.738 46.3691 191.475 45.5244 190.957 44.9775C190.449 44.4307 189.653 44.1572 188.569 44.1572C187.69 44.1572 186.919 44.3916 186.255 44.8604C185.591 45.3291 185.073 45.9443 184.702 46.7061V58H181.992V42.1504H184.556ZM205.122 58.293C202.974 58.293 201.226 57.5898 199.878 56.1836C198.53 54.7676 197.856 52.8779 197.856 50.5146V50.0166C197.856 48.4443 198.154 47.043 198.75 45.8125C199.355 44.5723 200.195 43.6055 201.27 42.9121C202.354 42.209 203.525 41.8574 204.785 41.8574C206.846 41.8574 208.447 42.5361 209.59 43.8936C210.732 45.251 211.304 47.1943 211.304 49.7236V50.8516H200.566C200.605 52.4141 201.06 53.6787 201.929 54.6455C202.808 55.6025 203.921 56.0811 205.269 56.0811C206.226 56.0811 207.036 55.8857 207.7 55.4951C208.364 55.1045 208.945 54.5869 209.443 53.9424L211.099 55.2314C209.771 57.2725 207.778 58.293 205.122 58.293ZM204.785 44.084C203.691 44.084 202.773 44.4844 202.031 45.2852C201.289 46.0762 200.83 47.1895 200.654 48.625H208.594V48.4199C208.516 47.043 208.145 45.9785 207.48 45.2266C206.816 44.4648 205.918 44.084 204.785 44.084ZM219.771 47.9365L223.286 42.1504H226.45L221.265 49.9873L226.611 58H223.477L219.814 52.0674L216.152 58H213.003L218.35 49.9873L213.164 42.1504H216.299L219.771 47.9365ZM233.013 38.3125V42.1504H235.972V44.2451H233.013V54.0742C233.013 54.709 233.145 55.1875 233.408 55.5098C233.672 55.8223 234.121 55.9785 234.756 55.9785C235.068 55.9785 235.498 55.9199 236.045 55.8027V58C235.332 58.1953 234.639 58.293 233.965 58.293C232.754 58.293 231.841 57.9268 231.226 57.1943C230.61 56.4619 230.303 55.4219 230.303 54.0742V44.2451H227.417V42.1504H230.303V38.3125H233.013ZM259.98 50.251C259.98 52.6631 259.429 54.6064 258.325 56.0811C257.222 57.5557 255.728 58.293 253.843 58.293C251.919 58.293 250.405 57.6826 249.302 56.4619V64.0938H246.592V42.1504H249.067L249.199 43.9082C250.303 42.541 251.836 41.8574 253.799 41.8574C255.703 41.8574 257.207 42.5752 258.311 44.0107C259.424 45.4463 259.98 47.4434 259.98 50.002V50.251ZM257.271 49.9434C257.271 48.1562 256.89 46.7451 256.128 45.71C255.366 44.6748 254.321 44.1572 252.993 44.1572C251.353 44.1572 250.122 44.8848 249.302 46.3398V53.9131C250.112 55.3584 251.353 56.0811 253.022 56.0811C254.321 56.0811 255.352 55.5684 256.113 54.543C256.885 53.5078 257.271 51.9746 257.271 49.9434ZM266.382 58H263.672V35.5H266.382V58ZM280.518 58C280.361 57.6875 280.234 57.1309 280.137 56.3301C278.877 57.6387 277.373 58.293 275.625 58.293C274.062 58.293 272.778 57.8535 271.772 56.9746C270.776 56.0859 270.278 54.9629 270.278 53.6055C270.278 51.9551 270.903 50.6758 272.153 49.7676C273.413 48.8496 275.181 48.3906 277.456 48.3906H280.093V47.1455C280.093 46.1982 279.81 45.4463 279.243 44.8896C278.677 44.3232 277.842 44.04 276.738 44.04C275.771 44.04 274.961 44.2842 274.307 44.7725C273.652 45.2607 273.325 45.8516 273.325 46.5449H270.601C270.601 45.7539 270.879 44.9922 271.436 44.2598C272.002 43.5176 272.764 42.9316 273.721 42.502C274.688 42.0723 275.747 41.8574 276.899 41.8574C278.726 41.8574 280.156 42.3164 281.191 43.2344C282.227 44.1426 282.764 45.3975 282.803 46.999V54.2939C282.803 55.749 282.988 56.9062 283.359 57.7656V58H280.518ZM276.021 55.9346C276.87 55.9346 277.676 55.7148 278.438 55.2754C279.199 54.8359 279.751 54.2646 280.093 53.5615V50.3096H277.969C274.648 50.3096 272.988 51.2812 272.988 53.2246C272.988 54.0742 273.271 54.7383 273.838 55.2168C274.404 55.6953 275.132 55.9346 276.021 55.9346ZM290.728 38.3125V42.1504H293.687V44.2451H290.728V54.0742C290.728 54.709 290.859 55.1875 291.123 55.5098C291.387 55.8223 291.836 55.9785 292.471 55.9785C292.783 55.9785 293.213 55.9199 293.76 55.8027V58C293.047 58.1953 292.354 58.293 291.68 58.293C290.469 58.293 289.556 57.9268 288.94 57.1943C288.325 56.4619 288.018 55.4219 288.018 54.0742V44.2451H285.132V42.1504H288.018V38.3125H290.728ZM303.442 58.293C301.294 58.293 299.546 57.5898 298.198 56.1836C296.851 54.7676 296.177 52.8779 296.177 50.5146V50.0166C296.177 48.4443 296.475 47.043 297.07 45.8125C297.676 44.5723 298.516 43.6055 299.59 42.9121C300.674 42.209 301.846 41.8574 303.105 41.8574C305.166 41.8574 306.768 42.5361 307.91 43.8936C309.053 45.251 309.624 47.1943 309.624 49.7236V50.8516H298.887C298.926 52.4141 299.38 53.6787 300.249 54.6455C301.128 55.6025 302.241 56.0811 303.589 56.0811C304.546 56.0811 305.356 55.8857 306.021 55.4951C306.685 55.1045 307.266 54.5869 307.764 53.9424L309.419 55.2314C308.091 57.2725 306.099 58.293 303.442 58.293ZM303.105 44.084C302.012 44.084 301.094 44.4844 300.352 45.2852C299.609 46.0762 299.15 47.1895 298.975 48.625H306.914V48.4199C306.836 47.043 306.465 45.9785 305.801 45.2266C305.137 44.4648 304.238 44.084 303.105 44.084ZM322.559 58C322.402 57.6875 322.275 57.1309 322.178 56.3301C320.918 57.6387 319.414 58.293 317.666 58.293C316.104 58.293 314.819 57.8535 313.813 56.9746C312.817 56.0859 312.319 54.9629 312.319 53.6055C312.319 51.9551 312.944 50.6758 314.194 49.7676C315.454 48.8496 317.222 48.3906 319.497 48.3906H322.134V47.1455C322.134 46.1982 321.851 45.4463 321.284 44.8896C320.718 44.3232 319.883 44.04 318.779 44.04C317.812 44.04 317.002 44.2842 316.348 44.7725C315.693 45.2607 315.366 45.8516 315.366 46.5449H312.642C312.642 45.7539 312.92 44.9922 313.477 44.2598C314.043 43.5176 314.805 42.9316 315.762 42.502C316.729 42.0723 317.788 41.8574 318.94 41.8574C320.767 41.8574 322.197 42.3164 323.232 43.2344C324.268 44.1426 324.805 45.3975 324.844 46.999V54.2939C324.844 55.749 325.029 56.9062 325.4 57.7656V58H322.559ZM318.062 55.9346C318.911 55.9346 319.717 55.7148 320.479 55.2754C321.24 54.8359 321.792 54.2646 322.134 53.5615V50.3096H320.01C316.689 50.3096 315.029 51.2812 315.029 53.2246C315.029 54.0742 315.312 54.7383 315.879 55.2168C316.445 55.6953 317.173 55.9346 318.062 55.9346ZM338.877 56.4326C337.822 57.6729 336.274 58.293 334.233 58.293C332.544 58.293 331.255 57.8047 330.366 56.8281C329.487 55.8418 329.043 54.3867 329.033 52.4629V42.1504H331.743V52.3896C331.743 54.792 332.72 55.9932 334.673 55.9932C336.743 55.9932 338.12 55.2217 338.804 53.6787V42.1504H341.514V58H338.936L338.877 56.4326ZM345.557 62.248L344.019 61.1934C344.937 59.9141 345.415 58.5957 345.454 57.2383V54.792H348.105V56.916C348.105 57.9023 347.861 58.8887 347.373 59.875C346.895 60.8613 346.289 61.6523 345.557 62.248ZM368.203 53.7959C368.203 53.0635 367.925 52.4971 367.368 52.0967C366.821 51.6865 365.859 51.335 364.482 51.042C363.115 50.749 362.026 50.3975 361.216 49.9873C360.415 49.5771 359.819 49.0889 359.429 48.5225C359.048 47.9561 358.857 47.2822 358.857 46.501C358.857 45.2021 359.404 44.1035 360.498 43.2051C361.602 42.3066 363.008 41.8574 364.717 41.8574C366.514 41.8574 367.969 42.3213 369.082 43.249C370.205 44.1768 370.767 45.3633 370.767 46.8086H368.042C368.042 46.0664 367.725 45.4268 367.09 44.8896C366.465 44.3525 365.674 44.084 364.717 44.084C363.73 44.084 362.959 44.2988 362.402 44.7285C361.846 45.1582 361.567 45.7197 361.567 46.4131C361.567 47.0674 361.826 47.5605 362.344 47.8926C362.861 48.2246 363.794 48.542 365.142 48.8447C366.499 49.1475 367.598 49.5088 368.438 49.9287C369.277 50.3486 369.897 50.8564 370.298 51.4521C370.708 52.0381 370.913 52.7559 370.913 53.6055C370.913 55.0215 370.347 56.1592 369.214 57.0186C368.081 57.8682 366.611 58.293 364.805 58.293C363.535 58.293 362.412 58.0684 361.436 57.6191C360.459 57.1699 359.692 56.5449 359.136 55.7441C358.589 54.9336 358.315 54.0596 358.315 53.1221H361.025C361.074 54.0303 361.436 54.7529 362.109 55.29C362.793 55.8174 363.691 56.0811 364.805 56.0811C365.83 56.0811 366.65 55.876 367.266 55.4658C367.891 55.0459 368.203 54.4893 368.203 53.7959ZM373.726 49.9287C373.726 48.376 374.028 46.9795 374.634 45.7393C375.249 44.499 376.099 43.542 377.183 42.8682C378.276 42.1943 379.521 41.8574 380.918 41.8574C383.076 41.8574 384.819 42.6045 386.147 44.0986C387.485 45.5928 388.154 47.5801 388.154 50.0605V50.251C388.154 51.7939 387.856 53.1807 387.261 54.4111C386.675 55.6318 385.83 56.584 384.727 57.2676C383.633 57.9512 382.373 58.293 380.947 58.293C378.799 58.293 377.056 57.5459 375.718 56.0518C374.39 54.5576 373.726 52.5801 373.726 50.1191V49.9287ZM376.45 50.251C376.45 52.0088 376.855 53.4199 377.666 54.4844C378.486 55.5488 379.58 56.0811 380.947 56.0811C382.324 56.0811 383.418 55.5439 384.229 54.4697C385.039 53.3857 385.444 51.8721 385.444 49.9287C385.444 48.1904 385.029 46.7842 384.199 45.71C383.379 44.626 382.285 44.084 380.918 44.084C379.58 44.084 378.501 44.6162 377.681 45.6807C376.86 46.7451 376.45 48.2686 376.45 50.251ZM394.102 42.1504L394.175 43.9082C395.337 42.541 396.904 41.8574 398.877 41.8574C401.094 41.8574 402.603 42.707 403.403 44.4062C403.931 43.6445 404.614 43.0293 405.454 42.5605C406.304 42.0918 407.305 41.8574 408.457 41.8574C411.934 41.8574 413.701 43.6982 413.76 47.3799V58H411.05V47.541C411.05 46.4082 410.791 45.5635 410.273 45.0068C409.756 44.4404 408.887 44.1572 407.666 44.1572C406.66 44.1572 405.825 44.46 405.161 45.0654C404.497 45.6611 404.111 46.4668 404.004 47.4824V58H401.279V47.6143C401.279 45.3096 400.151 44.1572 397.896 44.1572C396.118 44.1572 394.902 44.9141 394.248 46.4277V58H391.538V42.1504H394.102ZM424.438 58.293C422.29 58.293 420.542 57.5898 419.194 56.1836C417.847 54.7676 417.173 52.8779 417.173 50.5146V50.0166C417.173 48.4443 417.471 47.043 418.066 45.8125C418.672 44.5723 419.512 43.6055 420.586 42.9121C421.67 42.209 422.842 41.8574 424.102 41.8574C426.162 41.8574 427.764 42.5361 428.906 43.8936C430.049 45.251 430.62 47.1943 430.62 49.7236V50.8516H419.883C419.922 52.4141 420.376 53.6787 421.245 54.6455C422.124 55.6025 423.237 56.0811 424.585 56.0811C425.542 56.0811 426.353 55.8857 427.017 55.4951C427.681 55.1045 428.262 54.5869 428.76 53.9424L430.415 55.2314C429.087 57.2725 427.095 58.293 424.438 58.293ZM424.102 44.084C423.008 44.084 422.09 44.4844 421.348 45.2852C420.605 46.0762 420.146 47.1895 419.971 48.625H427.91V48.4199C427.832 47.043 427.461 45.9785 426.797 45.2266C426.133 44.4648 425.234 44.084 424.102 44.084ZM437.446 38.3125V42.1504H440.405V44.2451H437.446V54.0742C437.446 54.709 437.578 55.1875 437.842 55.5098C438.105 55.8223 438.555 55.9785 439.189 55.9785C439.502 55.9785 439.932 55.9199 440.479 55.8027V58C439.766 58.1953 439.072 58.293 438.398 58.293C437.188 58.293 436.274 57.9268 435.659 57.1943C435.044 56.4619 434.736 55.4219 434.736 54.0742V44.2451H431.851V42.1504H434.736V38.3125H437.446ZM446.528 58H443.818V42.1504H446.528V58ZM443.599 37.9463C443.599 37.5068 443.73 37.1357 443.994 36.833C444.268 36.5303 444.668 36.3789 445.195 36.3789C445.723 36.3789 446.123 36.5303 446.396 36.833C446.67 37.1357 446.807 37.5068 446.807 37.9463C446.807 38.3857 446.67 38.752 446.396 39.0449C446.123 39.3379 445.723 39.4844 445.195 39.4844C444.668 39.4844 444.268 39.3379 443.994 39.0449C443.73 38.752 443.599 38.3857 443.599 37.9463ZM453.428 42.1504L453.501 43.9082C454.663 42.541 456.23 41.8574 458.203 41.8574C460.42 41.8574 461.929 42.707 462.729 44.4062C463.257 43.6445 463.94 43.0293 464.78 42.5605C465.63 42.0918 466.631 41.8574 467.783 41.8574C471.26 41.8574 473.027 43.6982 473.086 47.3799V58H470.376V47.541C470.376 46.4082 470.117 45.5635 469.6 45.0068C469.082 44.4404 468.213 44.1572 466.992 44.1572C465.986 44.1572 465.151 44.46 464.487 45.0654C463.823 45.6611 463.438 46.4668 463.33 47.4824V58H460.605V47.6143C460.605 45.3096 459.478 44.1572 457.222 44.1572C455.444 44.1572 454.229 44.9141 453.574 46.4277V58H450.864V42.1504H453.428ZM483.765 58.293C481.616 58.293 479.868 57.5898 478.521 56.1836C477.173 54.7676 476.499 52.8779 476.499 50.5146V50.0166C476.499 48.4443 476.797 47.043 477.393 45.8125C477.998 44.5723 478.838 43.6055 479.912 42.9121C480.996 42.209 482.168 41.8574 483.428 41.8574C485.488 41.8574 487.09 42.5361 488.232 43.8936C489.375 45.251 489.946 47.1943 489.946 49.7236V50.8516H479.209C479.248 52.4141 479.702 53.6787 480.571 54.6455C481.45 55.6025 482.563 56.0811 483.911 56.0811C484.868 56.0811 485.679 55.8857 486.343 55.4951C487.007 55.1045 487.588 54.5869 488.086 53.9424L489.741 55.2314C488.413 57.2725 486.421 58.293 483.765 58.293ZM483.428 44.084C482.334 44.084 481.416 44.4844 480.674 45.2852C479.932 46.0762 479.473 47.1895 479.297 48.625H487.236V48.4199C487.158 47.043 486.787 45.9785 486.123 45.2266C485.459 44.4648 484.561 44.084 483.428 44.084ZM502.324 53.7959C502.324 53.0635 502.046 52.4971 501.489 52.0967C500.942 51.6865 499.98 51.335 498.604 51.042C497.236 50.749 496.147 50.3975 495.337 49.9873C494.536 49.5771 493.94 49.0889 493.55 48.5225C493.169 47.9561 492.979 47.2822 492.979 46.501C492.979 45.2021 493.525 44.1035 494.619 43.2051C495.723 42.3066 497.129 41.8574 498.838 41.8574C500.635 41.8574 502.09 42.3213 503.203 43.249C504.326 44.1768 504.888 45.3633 504.888 46.8086H502.163C502.163 46.0664 501.846 45.4268 501.211 44.8896C500.586 44.3525 499.795 44.084 498.838 44.084C497.852 44.084 497.08 44.2988 496.523 44.7285C495.967 45.1582 495.688 45.7197 495.688 46.4131C495.688 47.0674 495.947 47.5605 496.465 47.8926C496.982 48.2246 497.915 48.542 499.263 48.8447C500.62 49.1475 501.719 49.5088 502.559 49.9287C503.398 50.3486 504.019 50.8564 504.419 51.4521C504.829 52.0381 505.034 52.7559 505.034 53.6055C505.034 55.0215 504.468 56.1592 503.335 57.0186C502.202 57.8682 500.732 58.293 498.926 58.293C497.656 58.293 496.533 58.0684 495.557 57.6191C494.58 57.1699 493.813 56.5449 493.257 55.7441C492.71 54.9336 492.437 54.0596 492.437 53.1221H495.146C495.195 54.0303 495.557 54.7529 496.23 55.29C496.914 55.8174 497.812 56.0811 498.926 56.0811C499.951 56.0811 500.771 55.876 501.387 55.4658C502.012 55.0459 502.324 54.4893 502.324 53.7959ZM529.395 50.251C529.395 52.6631 528.843 54.6064 527.739 56.0811C526.636 57.5557 525.142 58.293 523.257 58.293C521.333 58.293 519.819 57.6826 518.716 56.4619V64.0938H516.006V42.1504H518.481L518.613 43.9082C519.717 42.541 521.25 41.8574 523.213 41.8574C525.117 41.8574 526.621 42.5752 527.725 44.0107C528.838 45.4463 529.395 47.4434 529.395 50.002V50.251ZM526.685 49.9434C526.685 48.1562 526.304 46.7451 525.542 45.71C524.78 44.6748 523.735 44.1572 522.407 44.1572C520.767 44.1572 519.536 44.8848 518.716 46.3398V53.9131C519.526 55.3584 520.767 56.0811 522.437 56.0811C523.735 56.0811 524.766 55.5684 525.527 54.543C526.299 53.5078 526.685 51.9746 526.685 49.9434ZM532.134 49.9287C532.134 48.376 532.437 46.9795 533.042 45.7393C533.657 44.499 534.507 43.542 535.591 42.8682C536.685 42.1943 537.93 41.8574 539.326 41.8574C541.484 41.8574 543.228 42.6045 544.556 44.0986C545.894 45.5928 546.562 47.5801 546.562 50.0605V50.251C546.562 51.7939 546.265 53.1807 545.669 54.4111C545.083 55.6318 544.238 56.584 543.135 57.2676C542.041 57.9512 540.781 58.293 539.355 58.293C537.207 58.293 535.464 57.5459 534.126 56.0518C532.798 54.5576 532.134 52.5801 532.134 50.1191V49.9287ZM534.858 50.251C534.858 52.0088 535.264 53.4199 536.074 54.4844C536.895 55.5488 537.988 56.0811 539.355 56.0811C540.732 56.0811 541.826 55.5439 542.637 54.4697C543.447 53.3857 543.853 51.8721 543.853 49.9287C543.853 48.1904 543.438 46.7842 542.607 45.71C541.787 44.626 540.693 44.084 539.326 44.084C537.988 44.084 536.909 44.6162 536.089 45.6807C535.269 46.7451 534.858 48.2686 534.858 50.251ZM554.385 50.6611L552.686 52.4336V58H549.976V35.5H552.686V49.1084L554.136 47.3652L559.072 42.1504H562.368L556.201 48.7715L563.086 58H559.907L554.385 50.6611ZM568.11 58H565.4V42.1504H568.11V58ZM565.181 37.9463C565.181 37.5068 565.312 37.1357 565.576 36.833C565.85 36.5303 566.25 36.3789 566.777 36.3789C567.305 36.3789 567.705 36.5303 567.979 36.833C568.252 37.1357 568.389 37.5068 568.389 37.9463C568.389 38.3857 568.252 38.752 567.979 39.0449C567.705 39.3379 567.305 39.4844 566.777 39.4844C566.25 39.4844 565.85 39.3379 565.576 39.0449C565.312 38.752 565.181 38.3857 565.181 37.9463ZM575.024 42.1504L575.112 44.1426C576.323 42.6191 577.905 41.8574 579.858 41.8574C583.208 41.8574 584.897 43.7471 584.927 47.5264V58H582.217V47.5117C582.207 46.3691 581.943 45.5244 581.426 44.9775C580.918 44.4307 580.122 44.1572 579.038 44.1572C578.159 44.1572 577.388 44.3916 576.724 44.8604C576.06 45.3291 575.542 45.9443 575.171 46.7061V58H572.461V42.1504H575.024ZM602.212 44.3037H600C600.566 45.124 600.854 46.0469 600.864 47.0723V47.4385C600.864 48.3955 600.591 49.2793 600.044 50.0898C599.507 50.9004 598.76 51.5352 597.803 51.9941C596.855 52.4531 595.796 52.6826 594.624 52.6826C593.853 52.6826 593.11 52.5801 592.397 52.375C591.89 52.7852 591.636 53.3027 591.636 53.9277C591.636 54.709 592.231 55.1094 593.423 55.1289H596.104C598.057 55.1387 599.536 55.5098 600.542 56.2422C601.548 56.9648 602.051 58.0244 602.051 59.4209C602.051 60.2412 601.704 61.042 601.011 61.8232C600.327 62.6143 599.39 63.2441 598.198 63.7129C597.007 64.1816 595.674 64.416 594.199 64.416C592.158 64.416 590.513 64.0352 589.263 63.2734C588.022 62.5215 587.402 61.5498 587.402 60.3584C587.402 59.5479 587.632 58.8057 588.091 58.1318C588.55 57.458 589.189 56.916 590.01 56.5059C589.463 56.0469 589.189 55.4561 589.189 54.7334C589.189 53.5225 589.751 52.5166 590.874 51.7158C589.175 50.6807 588.325 49.2012 588.325 47.2773V47.1162C588.325 45.583 588.911 44.3232 590.083 43.3369C591.265 42.3506 592.769 41.8574 594.595 41.8574C595.376 41.8574 596.113 41.9551 596.807 42.1504H602.183L602.212 44.3037ZM591.812 57.2676C591.265 57.5215 590.845 57.873 590.552 58.3223C590.259 58.7812 590.112 59.2793 590.112 59.8164C590.112 60.5391 590.474 61.1152 591.196 61.5449C591.919 61.9844 592.92 62.2041 594.199 62.2041C595.625 62.2041 596.836 61.9258 597.832 61.3691C598.838 60.8125 599.341 60.1631 599.341 59.4209C599.341 58.6982 599.087 58.1807 598.579 57.8682C598.071 57.5459 597.29 57.375 596.235 57.3555H592.734L591.812 57.2676ZM591.035 47.4385C591.035 48.249 591.377 48.957 592.061 49.5625C592.744 50.1582 593.599 50.4561 594.624 50.4561C595.63 50.4561 596.47 50.1582 597.144 49.5625C597.817 48.9668 598.154 48.2393 598.154 47.3799V47.1162C598.154 46.2666 597.817 45.5488 597.144 44.9629C596.47 44.377 595.62 44.084 594.595 44.084C593.569 44.084 592.72 44.377 592.046 44.9629C591.372 45.5488 591.035 46.2812 591.035 47.1602V47.4385ZM617.49 54.0303L621.182 42.1504H624.082L617.71 60.4463C616.724 63.083 615.156 64.4014 613.008 64.4014L612.495 64.3574L611.484 64.167V61.9697L612.217 62.0283C613.135 62.0283 613.848 61.8428 614.355 61.4717C614.873 61.1006 615.298 60.4219 615.63 59.4355L616.23 57.8242L610.576 42.1504H613.535L617.49 54.0303ZM625.562 49.9287C625.562 48.376 625.864 46.9795 626.47 45.7393C627.085 44.499 627.935 43.542 629.019 42.8682C630.112 42.1943 631.357 41.8574 632.754 41.8574C634.912 41.8574 636.655 42.6045 637.983 44.0986C639.321 45.5928 639.99 47.5801 639.99 50.0605V50.251C639.99 51.7939 639.692 53.1807 639.097 54.4111C638.511 55.6318 637.666 56.584 636.562 57.2676C635.469 57.9512 634.209 58.293 632.783 58.293C630.635 58.293 628.892 57.5459 627.554 56.0518C626.226 54.5576 625.562 52.5801 625.562 50.1191V49.9287ZM628.286 50.251C628.286 52.0088 628.691 53.4199 629.502 54.4844C630.322 55.5488 631.416 56.0811 632.783 56.0811C634.16 56.0811 635.254 55.5439 636.064 54.4697C636.875 53.3857 637.28 51.8721 637.28 49.9287C637.28 48.1904 636.865 46.7842 636.035 45.71C635.215 44.626 634.121 44.084 632.754 44.084C631.416 44.084 630.337 44.6162 629.517 45.6807C628.696 46.7451 628.286 48.2686 628.286 50.251ZM653.174 56.4326C652.119 57.6729 650.571 58.293 648.53 58.293C646.841 58.293 645.552 57.8047 644.663 56.8281C643.784 55.8418 643.34 54.3867 643.33 52.4629V42.1504H646.04V52.3896C646.04 54.792 647.017 55.9932 648.97 55.9932C651.04 55.9932 652.417 55.2217 653.101 53.6787V42.1504H655.811V58H653.232L653.174 56.4326ZM681.416 54.2646L684.463 42.1504H687.173L682.559 58H680.361L676.509 45.9883L672.759 58H670.562L665.962 42.1504H668.657L671.777 54.0156L675.469 42.1504H677.651L681.416 54.2646ZM692.886 58H690.176V42.1504H692.886V58ZM689.956 37.9463C689.956 37.5068 690.088 37.1357 690.352 36.833C690.625 36.5303 691.025 36.3789 691.553 36.3789C692.08 36.3789 692.48 36.5303 692.754 36.833C693.027 37.1357 693.164 37.5068 693.164 37.9463C693.164 38.3857 693.027 38.752 692.754 39.0449C692.48 39.3379 692.08 39.4844 691.553 39.4844C691.025 39.4844 690.625 39.3379 690.352 39.0449C690.088 38.752 689.956 38.3857 689.956 37.9463ZM700.913 38.3125V42.1504H703.872V44.2451H700.913V54.0742C700.913 54.709 701.045 55.1875 701.309 55.5098C701.572 55.8223 702.021 55.9785 702.656 55.9785C702.969 55.9785 703.398 55.9199 703.945 55.8027V58C703.232 58.1953 702.539 58.293 701.865 58.293C700.654 58.293 699.741 57.9268 699.126 57.1943C698.511 56.4619 698.203 55.4219 698.203 54.0742V44.2451H695.317V42.1504H698.203V38.3125H700.913ZM709.761 44.0693C710.962 42.5947 712.524 41.8574 714.448 41.8574C717.798 41.8574 719.487 43.7471 719.517 47.5264V58H716.807V47.5117C716.797 46.3691 716.533 45.5244 716.016 44.9775C715.508 44.4307 714.712 44.1572 713.628 44.1572C712.749 44.1572 711.978 44.3916 711.313 44.8604C710.649 45.3291 710.132 45.9443 709.761 46.7061V58H707.051V35.5H709.761V44.0693ZM740.801 58C740.645 57.6875 740.518 57.1309 740.42 56.3301C739.16 57.6387 737.656 58.293 735.908 58.293C734.346 58.293 733.062 57.8535 732.056 56.9746C731.06 56.0859 730.562 54.9629 730.562 53.6055C730.562 51.9551 731.187 50.6758 732.437 49.7676C733.696 48.8496 735.464 48.3906 737.739 48.3906H740.376V47.1455C740.376 46.1982 740.093 45.4463 739.526 44.8896C738.96 44.3232 738.125 44.04 737.021 44.04C736.055 44.04 735.244 44.2842 734.59 44.7725C733.936 45.2607 733.608 45.8516 733.608 46.5449H730.884C730.884 45.7539 731.162 44.9922 731.719 44.2598C732.285 43.5176 733.047 42.9316 734.004 42.502C734.971 42.0723 736.03 41.8574 737.183 41.8574C739.009 41.8574 740.439 42.3164 741.475 43.2344C742.51 44.1426 743.047 45.3975 743.086 46.999V54.2939C743.086 55.749 743.271 56.9062 743.643 57.7656V58H740.801ZM736.304 55.9346C737.153 55.9346 737.959 55.7148 738.721 55.2754C739.482 54.8359 740.034 54.2646 740.376 53.5615V50.3096H738.252C734.932 50.3096 733.271 51.2812 733.271 53.2246C733.271 54.0742 733.555 54.7383 734.121 55.2168C734.688 55.6953 735.415 55.9346 736.304 55.9346ZM764.004 53.7959C764.004 53.0635 763.726 52.4971 763.169 52.0967C762.622 51.6865 761.66 51.335 760.283 51.042C758.916 50.749 757.827 50.3975 757.017 49.9873C756.216 49.5771 755.62 49.0889 755.229 48.5225C754.849 47.9561 754.658 47.2822 754.658 46.501C754.658 45.2021 755.205 44.1035 756.299 43.2051C757.402 42.3066 758.809 41.8574 760.518 41.8574C762.314 41.8574 763.77 42.3213 764.883 43.249C766.006 44.1768 766.567 45.3633 766.567 46.8086H763.843C763.843 46.0664 763.525 45.4268 762.891 44.8896C762.266 44.3525 761.475 44.084 760.518 44.084C759.531 44.084 758.76 44.2988 758.203 44.7285C757.646 45.1582 757.368 45.7197 757.368 46.4131C757.368 47.0674 757.627 47.5605 758.145 47.8926C758.662 48.2246 759.595 48.542 760.942 48.8447C762.3 49.1475 763.398 49.5088 764.238 49.9287C765.078 50.3486 765.698 50.8564 766.099 51.4521C766.509 52.0381 766.714 52.7559 766.714 53.6055C766.714 55.0215 766.147 56.1592 765.015 57.0186C763.882 57.8682 762.412 58.293 760.605 58.293C759.336 58.293 758.213 58.0684 757.236 57.6191C756.26 57.1699 755.493 56.5449 754.937 55.7441C754.39 54.9336 754.116 54.0596 754.116 53.1221H756.826C756.875 54.0303 757.236 54.7529 757.91 55.29C758.594 55.8174 759.492 56.0811 760.605 56.0811C761.631 56.0811 762.451 55.876 763.066 55.4658C763.691 55.0459 764.004 54.4893 764.004 53.7959ZM772.954 44.0693C774.155 42.5947 775.718 41.8574 777.642 41.8574C780.991 41.8574 782.681 43.7471 782.71 47.5264V58H780V47.5117C779.99 46.3691 779.727 45.5244 779.209 44.9775C778.701 44.4307 777.905 44.1572 776.821 44.1572C775.942 44.1572 775.171 44.3916 774.507 44.8604C773.843 45.3291 773.325 45.9443 772.954 46.7061V58H770.244V35.5H772.954V44.0693ZM796.553 58C796.396 57.6875 796.27 57.1309 796.172 56.3301C794.912 57.6387 793.408 58.293 791.66 58.293C790.098 58.293 788.813 57.8535 787.808 56.9746C786.812 56.0859 786.313 54.9629 786.313 53.6055C786.313 51.9551 786.938 50.6758 788.188 49.7676C789.448 48.8496 791.216 48.3906 793.491 48.3906H796.128V47.1455C796.128 46.1982 795.845 45.4463 795.278 44.8896C794.712 44.3232 793.877 44.04 792.773 44.04C791.807 44.04 790.996 44.2842 790.342 44.7725C789.688 45.2607 789.36 45.8516 789.36 46.5449H786.636C786.636 45.7539 786.914 44.9922 787.471 44.2598C788.037 43.5176 788.799 42.9316 789.756 42.502C790.723 42.0723 791.782 41.8574 792.935 41.8574C794.761 41.8574 796.191 42.3164 797.227 43.2344C798.262 44.1426 798.799 45.3975 798.838 46.999V54.2939C798.838 55.749 799.023 56.9062 799.395 57.7656V58H796.553ZM792.056 55.9346C792.905 55.9346 793.711 55.7148 794.473 55.2754C795.234 54.8359 795.786 54.2646 796.128 53.5615V50.3096H794.004C790.684 50.3096 789.023 51.2812 789.023 53.2246C789.023 54.0742 789.307 54.7383 789.873 55.2168C790.439 55.6953 791.167 55.9346 792.056 55.9346ZM810.747 44.582C810.337 44.5137 809.893 44.4795 809.414 44.4795C807.637 44.4795 806.431 45.2363 805.796 46.75V58H803.086V42.1504H805.723L805.767 43.9814C806.655 42.5654 807.915 41.8574 809.546 41.8574C810.073 41.8574 810.474 41.9258 810.747 42.0625V44.582ZM826.641 50.251C826.641 52.6631 826.089 54.6064 824.985 56.0811C823.882 57.5557 822.388 58.293 820.503 58.293C818.579 58.293 817.065 57.6826 815.962 56.4619V64.0938H813.252V42.1504H815.728L815.859 43.9082C816.963 42.541 818.496 41.8574 820.459 41.8574C822.363 41.8574 823.867 42.5752 824.971 44.0107C826.084 45.4463 826.641 47.4434 826.641 50.002V50.251ZM823.931 49.9434C823.931 48.1562 823.55 46.7451 822.788 45.71C822.026 44.6748 820.981 44.1572 819.653 44.1572C818.013 44.1572 816.782 44.8848 815.962 46.3398V53.9131C816.772 55.3584 818.013 56.0811 819.683 56.0811C820.981 56.0811 822.012 55.5684 822.773 54.543C823.545 53.5078 823.931 51.9746 823.931 49.9434ZM846.768 53.7959C846.768 53.0635 846.489 52.4971 845.933 52.0967C845.386 51.6865 844.424 51.335 843.047 51.042C841.68 50.749 840.591 50.3975 839.78 49.9873C838.979 49.5771 838.384 49.0889 837.993 48.5225C837.612 47.9561 837.422 47.2822 837.422 46.501C837.422 45.2021 837.969 44.1035 839.062 43.2051C840.166 42.3066 841.572 41.8574 843.281 41.8574C845.078 41.8574 846.533 42.3213 847.646 43.249C848.77 44.1768 849.331 45.3633 849.331 46.8086H846.606C846.606 46.0664 846.289 45.4268 845.654 44.8896C845.029 44.3525 844.238 44.084 843.281 44.084C842.295 44.084 841.523 44.2988 840.967 44.7285C840.41 45.1582 840.132 45.7197 840.132 46.4131C840.132 47.0674 840.391 47.5605 840.908 47.8926C841.426 48.2246 842.358 48.542 843.706 48.8447C845.063 49.1475 846.162 49.5088 847.002 49.9287C847.842 50.3486 848.462 50.8564 848.862 51.4521C849.272 52.0381 849.478 52.7559 849.478 53.6055C849.478 55.0215 848.911 56.1592 847.778 57.0186C846.646 57.8682 845.176 58.293 843.369 58.293C842.1 58.293 840.977 58.0684 840 57.6191C839.023 57.1699 838.257 56.5449 837.7 55.7441C837.153 54.9336 836.88 54.0596 836.88 53.1221H839.59C839.639 54.0303 840 54.7529 840.674 55.29C841.357 55.8174 842.256 56.0811 843.369 56.0811C844.395 56.0811 845.215 55.876 845.83 55.4658C846.455 55.0459 846.768 54.4893 846.768 53.7959ZM856.685 38.3125V42.1504H859.644V44.2451H856.685V54.0742C856.685 54.709 856.816 55.1875 857.08 55.5098C857.344 55.8223 857.793 55.9785 858.428 55.9785C858.74 55.9785 859.17 55.9199 859.717 55.8027V58C859.004 58.1953 858.311 58.293 857.637 58.293C856.426 58.293 855.513 57.9268 854.897 57.1943C854.282 56.4619 853.975 55.4219 853.975 54.0742V44.2451H851.089V42.1504H853.975V38.3125H856.685ZM865.767 58H863.057V42.1504H865.767V58ZM862.837 37.9463C862.837 37.5068 862.969 37.1357 863.232 36.833C863.506 36.5303 863.906 36.3789 864.434 36.3789C864.961 36.3789 865.361 36.5303 865.635 36.833C865.908 37.1357 866.045 37.5068 866.045 37.9463C866.045 38.3857 865.908 38.752 865.635 39.0449C865.361 39.3379 864.961 39.4844 864.434 39.4844C863.906 39.4844 863.506 39.3379 863.232 39.0449C862.969 38.752 862.837 38.3857 862.837 37.9463ZM876.475 56.0811C877.441 56.0811 878.286 55.7881 879.009 55.2021C879.731 54.6162 880.132 53.8838 880.21 53.0049H882.773C882.725 53.9131 882.412 54.7773 881.836 55.5977C881.26 56.418 880.488 57.0723 879.521 57.5605C878.564 58.0488 877.549 58.293 876.475 58.293C874.316 58.293 872.598 57.5752 871.318 56.1396C870.049 54.6943 869.414 52.7217 869.414 50.2217V49.7676C869.414 48.2246 869.697 46.8525 870.264 45.6514C870.83 44.4502 871.641 43.5176 872.695 42.8535C873.76 42.1895 875.015 41.8574 876.46 41.8574C878.237 41.8574 879.712 42.3896 880.884 43.4541C882.065 44.5186 882.695 45.9004 882.773 47.5996H880.21C880.132 46.5742 879.741 45.7344 879.038 45.0801C878.345 44.416 877.485 44.084 876.46 44.084C875.083 44.084 874.014 44.582 873.252 45.5781C872.5 46.5645 872.124 47.9951 872.124 49.8701V50.3828C872.124 52.209 872.5 53.6152 873.252 54.6016C874.004 55.5879 875.078 56.0811 876.475 56.0811ZM890.244 50.6611L888.545 52.4336V58H885.835V35.5H888.545V49.1084L889.995 47.3652L894.932 42.1504H898.228L892.061 48.7715L898.945 58H895.767L890.244 50.6611ZM914.824 56.0811C915.791 56.0811 916.636 55.7881 917.358 55.2021C918.081 54.6162 918.481 53.8838 918.56 53.0049H921.123C921.074 53.9131 920.762 54.7773 920.186 55.5977C919.609 56.418 918.838 57.0723 917.871 57.5605C916.914 58.0488 915.898 58.293 914.824 58.293C912.666 58.293 910.947 57.5752 909.668 56.1396C908.398 54.6943 907.764 52.7217 907.764 50.2217V49.7676C907.764 48.2246 908.047 46.8525 908.613 45.6514C909.18 44.4502 909.99 43.5176 911.045 42.8535C912.109 42.1895 913.364 41.8574 914.81 41.8574C916.587 41.8574 918.062 42.3896 919.233 43.4541C920.415 44.5186 921.045 45.9004 921.123 47.5996H918.56C918.481 46.5742 918.091 45.7344 917.388 45.0801C916.694 44.416 915.835 44.084 914.81 44.084C913.433 44.084 912.363 44.582 911.602 45.5781C910.85 46.5645 910.474 47.9951 910.474 49.8701V50.3828C910.474 52.209 910.85 53.6152 911.602 54.6016C912.354 55.5879 913.428 56.0811 914.824 56.0811ZM933.955 58C933.799 57.6875 933.672 57.1309 933.574 56.3301C932.314 57.6387 930.811 58.293 929.062 58.293C927.5 58.293 926.216 57.8535 925.21 56.9746C924.214 56.0859 923.716 54.9629 923.716 53.6055C923.716 51.9551 924.341 50.6758 925.591 49.7676C926.851 48.8496 928.618 48.3906 930.894 48.3906H933.53V47.1455C933.53 46.1982 933.247 45.4463 932.681 44.8896C932.114 44.3232 931.279 44.04 930.176 44.04C929.209 44.04 928.398 44.2842 927.744 44.7725C927.09 45.2607 926.763 45.8516 926.763 46.5449H924.038C924.038 45.7539 924.316 44.9922 924.873 44.2598C925.439 43.5176 926.201 42.9316 927.158 42.502C928.125 42.0723 929.185 41.8574 930.337 41.8574C932.163 41.8574 933.594 42.3164 934.629 43.2344C935.664 44.1426 936.201 45.3975 936.24 46.999V54.2939C936.24 55.749 936.426 56.9062 936.797 57.7656V58H933.955ZM929.458 55.9346C930.308 55.9346 931.113 55.7148 931.875 55.2754C932.637 54.8359 933.188 54.2646 933.53 53.5615V50.3096H931.406C928.086 50.3096 926.426 51.2812 926.426 53.2246C926.426 54.0742 926.709 54.7383 927.275 55.2168C927.842 55.6953 928.569 55.9346 929.458 55.9346ZM943.433 58H940.723V35.5H943.433V58ZM950.728 58H948.018V35.5H950.728V58ZM961.655 58.293C959.507 58.293 957.759 57.5898 956.411 56.1836C955.063 54.7676 954.39 52.8779 954.39 50.5146V50.0166C954.39 48.4443 954.688 47.043 955.283 45.8125C955.889 44.5723 956.729 43.6055 957.803 42.9121C958.887 42.209 960.059 41.8574 961.318 41.8574C963.379 41.8574 964.98 42.5361 966.123 43.8936C967.266 45.251 967.837 47.1943 967.837 49.7236V50.8516H957.1C957.139 52.4141 957.593 53.6787 958.462 54.6455C959.341 55.6025 960.454 56.0811 961.802 56.0811C962.759 56.0811 963.569 55.8857 964.233 55.4951C964.897 55.1045 965.479 54.5869 965.977 53.9424L967.632 55.2314C966.304 57.2725 964.312 58.293 961.655 58.293ZM961.318 44.084C960.225 44.084 959.307 44.4844 958.564 45.2852C957.822 46.0762 957.363 47.1895 957.188 48.625H965.127V48.4199C965.049 47.043 964.678 45.9785 964.014 45.2266C963.35 44.4648 962.451 44.084 961.318 44.084ZM970.327 49.9434C970.327 47.5117 970.903 45.5586 972.056 44.084C973.208 42.5996 974.717 41.8574 976.582 41.8574C978.438 41.8574 979.907 42.4922 980.991 43.7617V35.5H983.701V58H981.211L981.079 56.3008C979.995 57.6289 978.486 58.293 976.553 58.293C974.717 58.293 973.218 57.541 972.056 56.0371C970.903 54.5332 970.327 52.5703 970.327 50.1484V49.9434ZM973.037 50.251C973.037 52.0479 973.408 53.4541 974.15 54.4697C974.893 55.4854 975.918 55.9932 977.227 55.9932C978.945 55.9932 980.2 55.2217 980.991 53.6787V46.3984C980.181 44.9043 978.936 44.1572 977.256 44.1572C975.928 44.1572 974.893 44.6699 974.15 45.6953C973.408 46.7207 973.037 48.2393 973.037 50.251ZM999.038 38.3125V42.1504H1002V44.2451H999.038V54.0742C999.038 54.709 999.17 55.1875 999.434 55.5098C999.697 55.8223 1000.15 55.9785 1000.78 55.9785C1001.09 55.9785 1001.52 55.9199 1002.07 55.8027V58C1001.36 58.1953 1000.66 58.293 999.99 58.293C998.779 58.293 997.866 57.9268 997.251 57.1943C996.636 56.4619 996.328 55.4219 996.328 54.0742V44.2451H993.442V42.1504H996.328V38.3125H999.038ZM1012.84 44.582C1012.43 44.5137 1011.98 44.4795 1011.5 44.4795C1009.73 44.4795 1008.52 45.2363 1007.89 46.75V58H1005.18V42.1504H1007.81L1007.86 43.9814C1008.75 42.5654 1010 41.8574 1011.64 41.8574C1012.16 41.8574 1012.56 41.9258 1012.84 42.0625V44.582ZM1025.13 56.4326C1024.07 57.6729 1022.52 58.293 1020.48 58.293C1018.79 58.293 1017.5 57.8047 1016.62 56.8281C1015.74 55.8418 1015.29 54.3867 1015.28 52.4629V42.1504H1017.99V52.3896C1017.99 54.792 1018.97 55.9932 1020.92 55.9932C1022.99 55.9932 1024.37 55.2217 1025.05 53.6787V42.1504H1027.76V58H1025.19L1025.13 56.4326ZM1035.57 38.3125V42.1504H1038.53V44.2451H1035.57V54.0742C1035.57 54.709 1035.7 55.1875 1035.97 55.5098C1036.23 55.8223 1036.68 55.9785 1037.31 55.9785C1037.63 55.9785 1038.06 55.9199 1038.6 55.8027V58C1037.89 58.1953 1037.2 58.293 1036.52 58.293C1035.31 58.293 1034.4 57.9268 1033.78 57.1943C1033.17 56.4619 1032.86 55.4219 1032.86 54.0742V44.2451H1029.98V42.1504H1032.86V38.3125H1035.57ZM1044.42 44.0693C1045.62 42.5947 1047.18 41.8574 1049.11 41.8574C1052.46 41.8574 1054.15 43.7471 1054.17 47.5264V58H1051.46V47.5117C1051.46 46.3691 1051.19 45.5244 1050.67 44.9775C1050.17 44.4307 1049.37 44.1572 1048.29 44.1572C1047.41 44.1572 1046.64 44.3916 1045.97 44.8604C1045.31 45.3291 1044.79 45.9443 1044.42 46.7061V58H1041.71V35.5H1044.42V44.0693ZM1058.29 56.5791C1058.29 56.1104 1058.43 55.7197 1058.7 55.4072C1058.98 55.0947 1059.4 54.9385 1059.96 54.9385C1060.52 54.9385 1060.94 55.0947 1061.22 55.4072C1061.51 55.7197 1061.66 56.1104 1061.66 56.5791C1061.66 57.0283 1061.51 57.4043 1061.22 57.707C1060.94 58.0098 1060.52 58.1611 1059.96 58.1611C1059.4 58.1611 1058.98 58.0098 1058.7 57.707C1058.43 57.4043 1058.29 57.0283 1058.29 56.5791Z" fill="black"/>
</g>
<defs>
<filter id="filter0_b_79:5" x="-3.67773" y="-3.80762" width="1378.11" height="72.2236" filterUnits="userSpaceOnUse" color-interpolation-filters="sRGB">
<feFlood flood-opacity="0" result="BackgroundImageFix"/>
<feGaussianBlur in="BackgroundImage" stdDeviation="2"/>
<feComposite in2="SourceAlpha" operator="in" result="effect1_backgroundBlur_79:5"/>
<feBlend mode="normal" in="SourceGraphic" in2="effect1_backgroundBlur_79:5" result="shape"/>
</filter>
</defs>
</svg>
